<svg version="1.2" xmlns="http://www.w3.org/2000/svg" viewBox="0 0 341 118" width="341" height="118">
	<style>
		.s0 { fill: #030303 } 
		.s1 { fill: #e9e3d9 } 
		.s2 { fill: #e2ded3 } 
		.s3 { fill: #d8d6cf } 
		.s4 { fill: #dbd9d0 } 
		.s5 { fill: #dbd8cf } 
		.s6 { fill: #010202 } 
		.s7 { fill: #e5e0d5 } 
		.s8 { fill: #eae6da } 
		.s9 { fill: #e8e5db } 
		.s10 { fill: #060606 } 
		.s11 { fill: #dedbd1 } 
		.s12 { fill: #040505 } 
		.s13 { fill: #e7e3da } 
		.s14 { fill: #050606 } 
		.s15 { fill: #0a0b0b } 
		.s16 { fill: #e8e6dc } 
		.s17 { fill: #dedcd2 } 
		.s18 { fill: #050505 } 
		.s19 { fill: #d2d0c8 } 
		.s20 { fill: #eae8dd } 
		.s21 { fill: #e6e2d7 } 
		.s22 { fill: #b2b0a9 } 
		.s23 { fill: #d1cec8 } 
		.s24 { fill: #dbd8d0 } 
		.s25 { fill: #dfdcd3 } 
		.s26 { fill: #d1d0c7 } 
		.s27 { fill: #dedbd2 } 
		.s28 { fill: #e1ded6 } 
		.s29 { fill: #d6d3cb } 
		.s30 { fill: #e6e3da } 
		.s31 { fill: #d5d1c5 } 
		.s32 { fill: #ede8de } 
		.s33 { fill: #d6d4ca } 
		.s34 { fill: #e9e6da } 
		.s35 { fill: #ece6da } 
		.s36 { fill: #e0dcd1 } 
		.s37 { fill: #dddad3 } 
		.s38 { fill: #d3d1c8 } 
		.s39 { fill: #cccac2 } 
		.s40 { fill: #cac9c2 } 
		.s41 { fill: #d9dad1 } 
		.s42 { fill: #eceadf } 
		.s43 { fill: #c5c5be } 
		.s44 { fill: #e2e0d6 } 
		.s45 { fill: #eee7d8 } 
		.s46 { fill: #cac8bf } 
		.s47 { fill: #e6e4d8 } 
		.s48 { fill: #e5e2d7 } 
		.s49 { fill: #e1e3dc } 
		.s50 { fill: #dbd9d2 } 
		.s51 { fill: #dcdbd4 } 
		.s52 { fill: #c1bdb6 } 
		.s53 { fill: #d2cec3 } 
		.s54 { fill: #eae7dd } 
		.s55 { fill: #b9b9b0 } 
		.s56 { fill: #e6e3d9 } 
		.s57 { fill: #dadbce } 
		.s58 { fill: #eee9dc } 
		.s59 { fill: #cbccc3 } 
		.s60 { fill: #c8cac5 } 
		.s61 { fill: #dddcd1 } 
		.s62 { fill: #a9aba5 } 
		.s63 { fill: #cbccc7 } 
		.s64 { fill: #bbbcb5 } 
		.s65 { fill: #bdbab2 } 
		.s66 { fill: #141616 } 
		.s67 { fill: #dbddda } 
		.s68 { fill: #e2e0d8 } 
		.s69 { fill: #b7b7b4 } 
		.s70 { fill: #c2c0bb } 
		.s71 { fill: #cac9c3 } 
		.s72 { fill: #9a9d99 } 
		.s73 { fill: #1b2021 } 
		.s74 { fill: #c9c7bf } 
		.s75 { fill: #b0b2aa } 
		.s76 { fill: #d9d8d0 } 
		.s77 { fill: #d2cfc7 } 
		.s78 { fill: #c2c4be } 
		.s79 { fill: #ede7de } 
		.s80 { fill: #e2e0d7 } 
		.s81 { fill: #e1e3df } 
		.s82 { fill: #eceae2 } 
		.s83 { fill: #a9aaa4 } 
		.s84 { fill: #c1c0b8 } 
		.s85 { fill: #bbb7b0 } 
		.s86 { fill: #b1b0a8 } 
		.s87 { fill: #d1cbbf } 
		.s88 { fill: #c3c5c2 } 
		.s89 { fill: #141515 } 
		.s90 { fill: #dee0db } 
		.s91 { fill: #e8e6de } 
		.s92 { fill: #aeaea7 } 
		.s93 { fill: #dbdad3 } 
		.s94 { fill: #d1cdc3 } 
		.s95 { fill: #1f2121 } 
		.s96 { fill: #b8bab7 } 
		.s97 { fill: #9c9e9b } 
		.s98 { fill: #efece4 } 
		.s99 { fill: #f0e9dd } 
		.s100 { fill: #afb2b0 } 
		.s101 { fill: #d8d8d5 } 
		.s102 { fill: #d5d1c9 } 
		.s103 { fill: #b2b5b2 } 
		.s104 { fill: #000000 } 
	</style>
	<path class="s0" d="m242 10c2.69 1.79 4.72 3.72 7 6 0.93-1.21 0.93-1.21 1.88-2.44 2.13-2.57 2.88-3.39 6.11-3.83 1.15-0.05 1.15-0.05 2.32-0.1q1.14-0.08 2.3-0.15c3.79 0.83 5.12 2.41 7.39 5.52 0.71 3.23 0.75 6.39 0.75 9.69q0.05 2.57 0.11 5.13 0.01 1.13 0.01 2.29c0.01 1.98 0.01 1.98 1.13 3.89q1.02-0.98 2.06-2c3.7-2.52 5.54-2.71 9.94-2 5.22 3.64 7.14 9.12 9 15q0 0.98 0 2 0.99 0 2 0c0.26-0.84 0.26-0.84 0.52-1.69 4.42-13.94 4.42-13.94 9.48-17.31 4.25-0.55 6.3-0.45 9.94 1.87 2.89 4.39 2.6 7.99 2.06 13.13-0.85 3.29-2.07 6.37-3.37 9.5-1.95 4.76-3.68 9.29-4.58 14.36-1.07 5.92-3.23 11.28-5.49 16.83q-0.59 1.48-1.19 3.01-1.67 4.16-3.37 8.3-0.43 1.07-0.88 2.18c-1.74 4.21-3.02 6.59-7.12 8.82-4.73 0.91-7.93 0.66-12.06-1.88-4.62-7.44-1.44-16.54 0.31-24.6q0.37-1.74 0.75-3.52 0.36-1.53 0.73-3.1c0.33-3.54-0.43-5.38-1.92-8.59-2.55-5.69-4.74-11.43-6.81-17.31-0.92 3.14-1.14 5.98-1.18 9.25q-0.03 1.49-0.07 3.03-0.06 3.15-0.09 6.3c-0.21 7.67-0.21 7.67-2.53 11.58-2.86 2.47-4.34 2.84-8.13 2.84-2.35-0.76-4.59-1.61-6.85-2.6q-1.06-0.2-2.15-0.4-2.05 1.44-4 3c-3.62 0.78-7.3 0.84-11 1q-1.49 0.1-3.04 0.2c-8.18 0.31-14.99-0.69-21.29-6.26-5.82-6.2-7.97-11.22-7.79-19.82q0.02-1.71 0.05-3.49 0.03-1.29 0.07-2.63c-2.97 0.99-2.97 0.99-6 2q-0.47 2.94-0.94 5.88-0.28 1.76-0.57 3.58c-0.42 3.04-0.62 5.98-0.74 9.04-0.36 3.75-0.69 4.43-3.25 7.5-3.69 2.51-8.04 3.86-12.5 4-2.16-0.98-2.16-0.98-4-2-1.94 0.28-1.94 0.28-4 1-4.61 1.08-6.69 0.72-11-1-3.11 0.26-5.53 0.79-8.38 2.06-5.11 1.83-9.3 1.39-14.31-0.31-6.27-3.31-9.1-6.57-12.31-12.75q-1.05 1.08-2.12 2.19c-6.16 6.12-11.16 10.08-20.19 10.19-6.66-0.13-11.51-1.19-16.28-5.98-1.21-1.41-2.32-2.9-3.41-4.4q-0.74 1.05-1.5 2.13c-8 9.2-19.46 13.73-31.5 14.87-8.58 0.09-15.89-0.71-22.66-6.39-2.26-2.72-2.63-6.18-2.34-9.61q0.73-1.17 1.48-2.37c1.84-3.18 1.86-5.17 1.77-8.82q-0.02-1.56-0.05-3.17c-0.03-2.62-0.03-2.62-1.2-4.64q-0.14-2.47-0.12-4.94-0.01-1.3-0.01-2.65c0.13-2.41 0.13-2.41 1.13-5.41 0.32-4.19 0.14-6.68-1.56-10.56-1.66-3.98-1.76-5.38-0.44-9.44 2.19-4.19 4.02-7.35 8-10 5.43-0.51 8.24 0.57 13 3q2.93 0.77 5.88 1.44c8.39 2 15.35 4.78 20.26 12.31 1.5 3.93 0.78 8.01 0.54 12.16 0.05 3.19 0.05 3.19 2.2 5.5 1.94 1.79 1.94 1.79 4.12 1.59 0.77-1.27 0.77-1.27 1.56-2.56 3.4-5.41 9.5-10.1 15.44-12.44 7.46-0.91 12.95-0.51 19 4q0.92 0.68 1.87 1.39c3.92 3.09 6.22 5.89 8.13 10.61q0.67-0.9 1.36-1.83c8.39-11.1 8.39-11.1 15.64-13.17 6.32-0.64 13.17 0.47 19 3 5.16 4.69 5.98 8.99 6.75 15.75q0.33 2.56 0.67 5.11 0.13 1.11 0.27 2.26c0.23 1.96 0.23 1.96 1.31 3.88 0.01-1.15 0.01-1.15 0.03-2.32q0.09-5.22 0.22-10.43 0.02-1.8 0.04-3.66 0.05-1.73 0.1-3.51 0.03-1.6 0.06-3.24c0.68-3.5 1.75-4.69 4.55-6.84 3.74-0.92 6.57-1.06 10.38-0.5 3.16 0.44 5 0.37 8.06-0.12 4.99-0.67 8.06 0.41 12.56 2.62 0.99 1.49 0.99 1.49 2 3q0.8-0.4 1.63-0.81c1.17-0.59 1.17-0.59 2.37-1.19 1.33-0.77 1.33-0.77 2.69-1.56 4.1-1.78 7.88-2.15 12.31-2.44q-0.25-1.2-0.5-2.44c-1.5-10.7-1.5-10.7 0.51-14.43 4.04-5.05 7.75-5.67 13.99-5.13zm7 19q0 2.96 0 6 0.49 0 1 0 0-2.95 0-6-0.49 0-1 0zm-148 24c-1.8 2.76-2.01 3.89-1.63 7.25q0.31 1.35 0.63 2.75 1.48 0.49 3 1c2.21-1.54 2.21-1.54 4-4-0.15-3.69-0.15-3.69-1-7q-2.46 0-5 0zm46 0c-2.54 3.42-3.36 5.76-3 10 2.17-0.51 4-1 6-2 0.21-4.14 0.21-4.14-1-8q-0.98 0-2 0zm76 2c-0.17 3.58-0.17 3.58 0 7 2.48 0.5 2.48 0.5 5 1 1.6-3.51 2.22-6.14 2-10-3.95-0.35-3.95-0.35-7 2zm-175 2c0 3.3 0 6.6 0 10 4.65 1.45 8.56 0.77 13-1 2.46-1.96 2.46-1.96 4-4-4.4-3.59-6.44-5.14-12.13-5.06q-2.4 0.03-4.87 0.06z"/>
	<path class="s1" d="m33 14c3.88 1.75 3.88 1.75 5 4 1.99 0.28 1.99 0.28 4.38 0.31 7.3 0.61 14.71 3.15 19.81 8.63 2.07 3.5 2.66 5.07 1.81 9.06-2.37 2.75-2.37 2.75-5 5q-0.98 0.98-2 2c1.52 0.31 1.52 0.31 3.06 0.62 6.01 1.75 9.85 5.44 12.88 10.82 1.21 4.06 1.86 6.36 1.06 10.56-3.64 5.37-7.81 9.77-14 12q-1 0.41-2.03 0.83c-5.39 1.97-10.54 2.51-16.22 2.61q-1 0.03-2.04 0.06c-5-0.02-7.9-1.32-11.71-4.5-0.88-2.75-0.88-2.75-1-5 2.47-0.5 2.47-0.5 5-1q-0.25-1.63-0.5-3.31c-0.67-5.23-0.59-10.43-0.5-15.69q-0.98 0-2 0-0.49-2.96-1-6 1.48-0.49 3-1c0-5.94 0-11.88 0-18q-1.97-0.49-4-1 0.49-1.97 1-4 0.98 0 2 0-0.09-1.17-0.19-2.38 0.09-1.29 0.19-2.62 1.48-0.98 3-2zm15 43c0 3.3 0 6.6 0 10 4.65 1.45 8.56 0.77 13-1 2.46-1.96 2.46-1.96 4-4-4.4-3.59-6.44-5.14-12.13-5.06q-2.4 0.03-4.87 0.06z"/>
	<path class="s2" d="m237 14c1.58 1.58 1.2 3.25 1.28 5.44 0.06 1.34 0.06 1.34 0.11 2.71q0.11 2.85 0.22 5.7c0.05 1.34 0.05 1.34 0.11 2.71q0.04 1.24 0.09 2.51c-0.02 1.94-0.02 1.94 1.19 2.93 4.45 30.71 4.45 30.71 0.61 37.44-1.61 1.56-1.61 1.56-3.61 1.56q-0.49-1.97-1-4-0.92 0.98-1.88 2c-4.44 2.85-7.97 2.73-13.12 2-6.78-1.75-11.13-4.13-15-10-2.18-6.54-1.8-13.11 1.06-19.38 2.52-4.41 5.06-7.83 9.94-9.62 5.27-0.69 9.5-1 14 2q-0.22-1.37-0.44-2.78c-2.08-13.79-2.08-13.79-1.56-19.22 3.22-2.15 4.28-2.29 8-2zm-14 41c-0.17 3.58-0.17 3.58 0 7 2.48 0.5 2.48 0.5 5 1 1.6-3.51 2.22-6.14 2-10-3.95-0.35-3.95-0.35-7 2z"/>
	<path class="s3" d="m146 37c3.44 2 3.44 2 6 4q0.49-0.98 1-2 1.48 0.49 3 1c1.17 4.23 1.9 8.44 2.65 12.76q0.18 0.98 0.36 1.99 0.52 2.9 1.01 5.8c1.05 3.71 2.56 5.52 4.98 8.45 0 4 0 4-1 6-5.75-1.62-5.75-1.62-8-5-3.08 1.12-5.58 2.37-8.38 4.13-3.61 2.11-6.41 2.35-10.62 1.87-2.44-1-2.44-1-4-2q0-0.98 0-2-0.93-0.37-1.89-0.75c-3.22-1.9-3.62-4.14-4.63-7.61-1.07-5.91-0.8-12.14 2.46-17.33q1.01-1.14 2.06-2.31 0.99 0 2 0 0.09-0.89 0.19-1.81c0.81-2.19 0.81-2.19 2.93-3.94 3.63-1.58 5.95-1.73 9.88-1.25zm1 16c-2.54 3.42-3.36 5.76-3 10 2.17-0.51 4-1 6-2 0.21-4.14 0.21-4.14-1-8q-0.99 0-2 0z"/>
	<path class="s4" d="m99.06 35.44c6.12 0.87 10.34 4.57 14.94 8.56 2.94 4.4 3.07 8.77 3 14-0.66 2.74-1.59 4.49-3 7-0.62 1.33-0.62 1.33-1.25 2.69-3.09 4.09-6.42 5.9-11.37 6.77-6.21 0.37-9.92-0.72-14.72-4.66-4.17-4.53-5.11-8.24-5.47-14.36q-0.14-1.94-0.27-3.94c0.08-3.36 0.14-4.84 2.08-7.5 2.02-1.89 2.02-1.89 4.37-3.69q1.16-0.9 2.34-1.82c3.1-2.02 5.75-2.39 9.35-3.05zm1.94 17.56c-1.8 2.76-2.01 3.89-1.63 7.25q0.31 1.35 0.63 2.75 1.48 0.49 3 1c2.21-1.54 2.21-1.54 4-4-0.15-3.69-0.15-3.69-1-7q-2.46 0-5 0z"/>
	<path class="s5" d="m33 14c3.88 1.75 3.88 1.75 5 4 2.02 0.32 2.02 0.32 4.44 0.38 5.7 0.43 10.39 2.26 15.56 4.62q-0.98 1.97-2 4-1.29-0.71-2.63-1.44c-3.22-1.49-5.86-2.14-9.37-2.56q0 0.98 0 2-2.96 0-6 0-0.04 4.91-0.06 9.81-0.02 1.39-0.03 2.82 0 1.33-0.01 2.7-0.01 1.23-0.01 2.49c0.02 2.36 0.02 2.36 1.11 5.18q-0.46 2.01-1 4-0.12 2.38-0.1 4.77 0.01 1.32 0.01 2.69c0.01 1.38 0.01 1.38 0.03 2.79q0 1.4 0.01 2.84 0.02 3.45 0.05 6.91c13.57 0.28 13.57 0.28 25.47-5.43 2.92-3 3.88-5.53 4.53-9.57q-0.98 0-2 0-2.06-1.94-4-4-0.86-0.86-1.75-1.75-0.62-0.62-1.25-1.25 0.98-1.97 2-4-1.39-0.46-2.81-0.94-3.1-1.03-6.19-2.06 0-0.98 0-2c2.64-0.66 5.28-1.32 8-2q-1.48 1.97-3 4c1.52 0.31 1.52 0.31 3.06 0.62 6.01 1.75 9.85 5.44 12.88 10.82 1.21 4.06 1.86 6.36 1.06 10.56-3.64 5.37-7.81 9.77-14 12q-1 0.41-2.03 0.83c-5.39 1.97-10.54 2.51-16.22 2.61q-1 0.03-2.04 0.06c-5-0.02-7.9-1.32-11.71-4.5-0.88-2.75-0.88-2.75-1-5 2.47-0.5 2.47-0.5 5-1q-0.25-1.63-0.5-3.31c-0.67-5.23-0.59-10.43-0.5-15.69q-0.98 0-2 0-0.49-2.95-1-6 1.48-0.49 3-1c0-5.94 0-11.88 0-18q-1.97-0.49-4-1 0.49-1.97 1-4 0.98 0 2 0-0.09-1.17-0.19-2.38 0.09-1.29 0.19-2.62 1.48-0.98 3-2z"/>
	<path class="s6" d="m311 30c2.94 1.88 2.94 1.88 5 5 1.05 7.1-0.66 13.01-3.38 19.5-1.94 4.76-3.67 9.29-4.57 14.36-1.07 5.92-3.23 11.28-5.49 16.83q-0.59 1.48-1.19 3.01-1.67 4.16-3.37 8.3-0.43 1.07-0.88 2.18c-1.74 4.21-3.02 6.59-7.12 8.82-4.76 0.92-7.94 0.67-12.06-1.94-2.61-4.11-2.4-7.32-1.94-12.06 0.99-0.5 0.99-0.5 2-1 0.33 2.31 0.66 4.62 1 7 3.46-0.5 3.46-0.5 7-1q0.24-1.21 0.48-2.46c1.44-6.83 3.33-12.87 6.38-19.15 1.3-2.73 2.28-5.49 3.14-8.39q0.99 0 2 0-0.09-1.94-0.19-3.94c0.02-5.19 1.3-9.26 3.19-14.06q1.35-3.44 2.69-6.87 0.65-1.63 1.32-3.31c1.16-2.79 1.16-2.79 0.99-5.82-3.05-1.01-3.05-1.01-6 0 2.47-5.46 5.09-5.6 11-5z"/>
	<path class="s7" d="m302 33c2.48 0.99 2.48 0.99 5 2-1.1 5.7-2.62 10.68-5 16-2.34 6.02-3.49 11.56-4 18q-0.99 0-2 0c-0.34 1.61-0.34 1.61-0.69 3.25-1.18 4.8-3.12 9.19-5.1 13.7-1.14 2.89-1.88 5.66-2.59 8.68-1.11 4.06-1.11 4.06-3.36 5.43-1.95 0.57-1.95 0.57-5.26 0.94q-0.49-0.49-1-1c0.17-8.87 1.1-17.98 4.25-26.31 0.94-3.36 0.38-4.67-1.25-7.69q-0.99-1.48-2-3-0.75-2.01-1.38-4.06c-1.09-3.45-2.37-6.74-3.81-10.06-1.73-4.23-2.2-7.35-1.81-11.88q2.46-0.49 5-1 0.74 1.72 1.5 3.5c3.23 7.29 6.9 14.38 10.5 21.5 2.58-2.58 3.3-5.08 4.56-8.5 2.38-6.39 2.38-6.39 3.44-8.5q0.99 0 2 0 0.2-1.06 0.4-2.15 0.27-1.37 0.54-2.79c0.26-1.37 0.26-1.37 0.52-2.77 0.54-2.29 0.54-2.29 1.54-3.29z"/>
	<path class="s8" d="m237 14c1.83 1.83 1.37 4.76 1.54 7.24 0.13 1.94 0.13 1.94 0.26 3.93q0.06 1.01 0.13 2.06 0.2 3.05 0.41 6.1c0.51 7.9 0.79 15.75 0.66 23.67q-1.97 0-4 0c-1.75 1.42-1.75 1.42-3 3-1.25-5.39-1.07-10.48-1-16-4.62 0-9.24 0-14 0q-0.99 1.97-2 4-0.77 1.08-1.56 2.19c-1.97 3.85-2.17 7.54-2.44 11.81q-1.48-0.49-3-1-0.49-0.98-1-2c-0.5 2.47-0.5 2.47-1 5-2.52-2.52-2.35-3.51-2.44-7 0.15-7 2.35-12.44 6.94-17.73 4.3-3.69 8.54-3.77 14.05-3.64 2.45 0.37 2.45 0.37 5.45 2.37q-0.22-1.37-0.44-2.78c-2.08-13.79-2.08-13.79-1.56-19.22 3.22-2.15 4.28-2.29 8-2z"/>
	<path class="s9" d="m259 14c0.81 19.74 1.14 39.26 0 59-2.48 0.5-2.48 0.5-5 1-2.43-2.22-3.86-4.06-4.36-7.36-0.11-2.89-0.09-5.75-0.01-8.64q0.01-1.54 0.03-3.12c0.13-6.56 0.74-12.76 1.96-19.2 0.58-4.1 0.12-7.62-0.62-11.68q-0.49-0.49-1-1c-0.26-4.03-0.29-5.56 2-9 2.98-1.15 3.87-1.04 7 0z"/>
	<path class="s10" d="m38 48c16.96-0.74 16.96-0.74 24 4 1.24 0.8 1.24 0.8 2.5 1.63q0.74 0.67 1.5 1.37 0 0.98 0 2 0.98 0 2 0c0.06 2.83 0.04 4.41-1 7-3.79 3.83-8.31 7.78-13.9 8.11q-1.04 0-2.11-0.01c-1.14-0.01-1.14-0.01-2.3-0.01q-1.17-0.01-2.38-0.03-1.19 0-2.41-0.01-2.95-0.02-5.9-0.05-0.29-4.87-0.56-9.75-0.09-1.37-0.17-2.79-0.07-1.33-0.15-2.69-0.07-1.22-0.14-2.48c0.02-2.27 0.37-4.12 1.02-6.29zm10 9c0 3.3 0 6.6 0 10 4.65 1.45 8.56 0.77 13-1 2.46-1.96 2.46-1.96 4-4-4.4-3.59-6.44-5.14-12.13-5.06q-2.4 0.03-4.87 0.06z"/>
	<path class="s11" d="m174 36c2.48 0.5 2.48 0.5 5 1q0.49 2.46 1 5 1.11-1.23 2.25-2.5c4.54-3.89 10.12-2.91 15.75-2.5q0.99 1.97 2 4-0.99 0-2 0 0 0.98 0 2c-3.3 0.33-6.6 0.66-10 1-2.82 9.35-3.64 18.31-4 28q-1.97 0-4 0 0 0.98 0 2-2.49 0.57-5 1c-1-1-1-1-1.11-4.6q0-2.41 0.01-4.81 0-1.26 0.01-2.55 0.01-4.05 0.03-8.1 0.01-2.74 0.01-5.48 0.02-6.73 0.05-13.46z"/>
	<path class="s12" d="m221.36 43.61q1.88 0.07 3.83 0.14c1.91 0.05 1.91 0.05 3.85 0.11q1.46 0.07 2.96 0.14c1.42 7.97 1.2 14.85-3 22-3.62 2.4-6.71 2.53-11 2-3.18-2.07-4.65-3.68-5.63-7.38-0.56-4-0.75-6.75 0.88-10.49q0.86-1.05 1.75-2.13 0.57-1.04 1.16-2.12c1.84-1.88 1.84-1.88 5.2-2.27zm1.64 11.39c-0.17 3.58-0.17 3.58 0 7 2.48 0.5 2.48 0.5 5 1 1.6-3.51 2.22-6.14 2-10-3.95-0.35-3.95-0.35-7 2z"/>
	<path class="s13" d="m33 14c3.88 1.75 3.88 1.75 5 4 2.02 0.32 2.02 0.32 4.44 0.38 5.7 0.43 10.39 2.26 15.56 4.62q-0.98 1.97-2 4-1.29-0.71-2.63-1.44c-3.22-1.49-5.86-2.14-9.37-2.56q0 0.98 0 2-2.96 0-6 0-0.04 4.91-0.06 9.81-0.02 1.39-0.03 2.82 0 1.33-0.01 2.7-0.01 1.23-0.01 2.49c0.02 2.36 0.02 2.36 1.11 5.18-1.49 0.5-1.49 0.5-3 1q-0.49 0.98-1 2c-1.94 0.69-1.94 0.69-4 1q-0.98-0.49-2-1c-0.63-3.06-0.63-3.06-1-6q1.48-0.49 3-1c0-5.94 0-11.88 0-18q-1.97-0.49-4-1 0.49-1.97 1-4 0.98 0 2 0-0.09-1.17-0.19-2.38 0.09-1.29 0.19-2.62 1.48-0.98 3-2z"/>
	<path class="s14" d="m104 44c3.39 2.35 4.94 5.03 6 9-0.25 2.75-0.25 2.75-1 5-0.99 0.5-0.99 0.5-2 1q-0.49-2.95-1-6-2.46 0-5 0c-0.33 3.3-0.66 6.6-1 10 3.93-0.57 3.93-0.57 7-3q0.49 1.48 1 3c-3.21 3.21-5.42 5.36-10.06 5.63-4.67-0.75-6.06-1.97-8.94-5.63-1.54-3.07-1.23-5.6-1-9 3.22-8.21 7.15-11.61 16-10z"/>
	<path class="s15" d="m148 44c3.99 3.06 4.32 7.27 5 12 0.13 2.37 0.1 4.63 0 7q-1.14 0.4-2.31 0.81c-2.68 0.96-2.68 0.96-4.04 2.74-2.26 1.99-3.75 1.82-6.71 1.76q-1.31 0-2.66-0.01c-2.28-0.3-2.28-0.3-4.28-2.3-1.02-7.08-0.15-13.14 4-19 3.25-3.59 6.31-3.51 11-3zm-1 9c-2.54 3.42-3.36 5.76-3 10 2.17-0.51 4-1 6-2 0.21-4.14 0.21-4.14-1-8q-0.99 0-2 0z"/>
	<path class="s16" d="m146 37q1.48 0.98 3 2-0.49 1.48-1 3-1.48 0-3 0 0 0.98 0 2c-1.61 0.5-1.61 0.5-3.25 1-3.89 1.7-5.44 3.76-7.1 7.62-1.89 6.89-1.01 13.75 1.35 20.38-1.49 0.5-1.49 0.5-3 1q0-0.98 0-2-0.93-0.37-1.89-0.75c-3.22-1.9-3.62-4.14-4.63-7.61-1.07-5.91-0.8-12.14 2.46-17.33q1.01-1.14 2.06-2.31 0.99 0 2 0 0.09-0.89 0.19-1.81c0.81-2.19 0.81-2.19 2.93-3.94 3.54-1.54 6.06-1.6 9.88-1.25z"/>
	<path class="s17" d="m273 36c2.38 0 2.38 0 5 1 1.27 2.39 2.15 4.46 3 7q0.75 2.05 1.51 4.1 0.37 0.99 0.74 2.02c1.52 3.84 3.6 7.37 5.75 10.88q0.99 0 2 0c-0.38 1.94-0.38 1.94-1 4q-0.99 0.49-2 1-0.99-0.49-2-1-0.49 2.95-1 6c-5.9-7.27-5.9-7.27-7.38-12.06-1.09-3.45-2.37-6.74-3.81-10.06-1.73-4.24-2.29-7.34-1.81-11.88q0.49-0.49 1-1z"/>
	<path class="s18" d="m42.5 25.69c5.37 0.04 10.03 1.26 14.5 4.31q0.49 1.48 1 3c-5.75 4-5.75 4-8 4q-0.49 1.48-1 3c-2 1.17-2 1.17-4.44 2.19q-1.2 0.51-2.43 1.04c-2.13 0.77-2.13 0.77-4.13 0.77-1.21-5.61-1.33-11.28-1-17 1.6-1.6 3.28-1.25 5.5-1.31z"/>
	<path class="s19" d="m251 41q0.49 0.98 1 2 0.99 0.49 2 1 0 2.5 0 5 0.99 0.49 2 1c-0.99 0.5-0.99 0.5-2 1q1.97 0.49 4 1 0-2.46 0-5 0.49 0 1 0c0 8.58 0 17.16 0 26-2.48 0.5-2.48 0.5-5 1-2.51-2.26-3.88-4.11-4.35-7.49-0.08-3.01-0.05-6 0.04-9.01q0.01-1.54 0.03-3.13c0.07-4.6 0.27-8.87 1.28-13.37z"/>
	<path class="s20" d="m36 48q0.98 0.49 2 1c-0.33 7.92-0.66 15.84-1 24q1.48 0 3 0-0.49 1.48-1 3-2.5 0-5 0-0.49 0.98-1 2c-2.87-0.57-3.86-0.86-6-3 0.38-2.63 0.38-2.63 1-5q1.97 0 4 0-0.25-1.66-0.5-3.38c-0.62-4.88-0.59-9.71-0.5-14.62q0.95-0.15 1.94-0.31 1.01-0.34 2.06-0.69 0.49-1.48 1-3z"/>
	<path class="s21" d="m88 52q0.06 0.88 0.11 1.79 0.1 1.18 0.2 2.4 0.09 1.16 0.18 2.35c0.64 3.11 1.53 4.97 3.51 7.46 2.92 1.24 2.92 1.24 6.19 1.81q1.62 0.35 3.29 0.71c1.25 0.24 1.25 0.24 2.52 0.48q-0.49 0.98-1 2 0.99 0.98 2 2c-1.69 1.69-3.74 1.33-6.06 1.44-5.44-0.03-8.28-1.38-12.38-4.83-2.4-2.48-3.52-4.05-3.76-7.53q0.04-1.61 0.07-3.27 0.03-1.62 0.06-3.29 0.03-1.24 0.07-2.52c3.88-1 3.88-1 5-1z"/>
	<path class="s22" d="m302 33c2.48 0.99 2.48 0.99 5 2-1.1 5.7-2.62 10.68-5 16-2.34 6.02-3.49 11.56-4 18q-0.49 0-1 0c0-3.63 0-7.26 0-11q-1.48 0-3 0c-1.37-3.69-0.6-5.71 0.94-9.25q0.57-1.33 1.15-2.7 0.45-1.01 0.91-2.05 0.99 0 2 0 0.2-1.06 0.4-2.15 0.27-1.37 0.54-2.79 0.26-1.37 0.52-2.77c0.54-2.29 0.54-2.29 1.54-3.29z"/>
	<path class="s23" d="m153 39q1.48 0.49 3 1c2.29 7.51 2.58 15.2 3 23q-0.99 0-2 0-0.49 0.98-1 2c-3.91-4.31-4.08-9.22-4.96-14.79-0.74-3.39-0.74-3.39-3.64-5.02q-1.18-0.59-2.4-1.19 0-0.98 0-2c1.98-0.66 3.96-1.32 6-2q0.49 0.49 1 1 0.49-0.98 1-2z"/>
	<path class="s24" d="m60 40c-1.49 1.49-1.49 1.49-3 3 1.52 0.31 1.52 0.31 3.06 0.63 6.01 1.74 9.85 5.43 12.88 10.81 1.13 3.79 1.51 6.63 1.06 10.56-1.5 1.94-1.5 1.94-3 3q-1-3-2-6-0.49 0-1 0 0-2.46 0-5-0.98 0-2 0-2.06-1.94-4-4-0.86-0.86-1.75-1.75c-0.62-0.62-0.62-0.62-1.25-1.25q0.98-1.97 2-4c-1.39-0.46-1.39-0.46-2.81-0.94q-3.1-1.03-6.19-2.06 0-0.98 0-2c5.75-2.13 5.75-2.13 8-1z"/>
	<path class="s25" d="m207 58q0.99 0.49 2 1 0 0.98 0 2 0.99 0 2 0 0.99-0.98 2-2 0.4 1.14 0.81 2.31c1.19 2.69 1.87 3.95 4.19 5.69 3.1 1.2 3.1 1.2 6 2q-0.49 1.48-1 3c2.64-0.66 5.28-1.32 8-2q0.49 1.97 1 4c-5.65 1.69-11.92 1.34-17.32-1.01-3.96-2.32-7.06-4.55-8.68-8.99 0.31-3.31 0.31-3.31 1-6z"/>
	<path class="s15" d="m29 18q0.49 1.48 1 3c-0.99 0.5-0.99 0.5-2 1q-0.49 1.48-1 3 1.97 0.49 4 1c0 5.94 0 11.88 0 18q-0.98 0.49-2 1 0 2.95 0 6 0.98 0 2 0c0.33 6.27 0.66 12.54 1 19q-1.97 0-4 0 0.02-1.47 0.04-2.99 0.01-1.91 0.02-3.88 0.02-1.91 0.04-3.87c0.13-3.15 0.13-3.15-1.1-5.26q-0.14-2.47-0.12-4.94-0.01-1.3-0.01-2.65c0.13-2.41 0.13-2.41 1.13-5.41 0.32-4.19 0.14-6.68-1.56-10.56-1.61-3.84-1.69-5.52-0.44-9.44 1.56-1.87 1.56-1.87 3-3z"/>
	<path class="s26" d="m94 37q0 1.48 0 3-1.48 1.48-3 3c4.29 0 8.58 0 13 0q0 0.49 0 1c-0.89 0-0.89 0-1.79 0.01-4.75 0.16-4.75 0.16-8.85 2.29-1.51 1.77-1.51 1.77-3.36 4.7-0.99 1.49-0.99 1.49-2 3q-2.46-0.49-5-1c0 3.3 0 6.6 0 10q-0.49 0-1 0-0.33-3.62-0.63-7.25-0.09-1.02-0.19-2.07c-0.3-3.81-0.51-6.56 1.82-9.68 2.09-1.92 2.09-1.92 4.5-3.75q1.19-0.92 2.41-1.86c2.09-1.39 2.09-1.39 4.09-1.39z"/>
	<path class="s27" d="m198 37q0.99 1.97 2 4-0.99 0-2 0 0 0.98 0 2c-3.3 0.33-6.6 0.66-10 1q-0.99 2.95-2 6-0.65-0.95-1.31-1.94c-1.6-2.33-1.6-2.33-4.69-3.06 0-3 0-3 2.25-5.69 4.56-3.67 10.22-2.71 15.75-2.31z"/>
	<path class="s28" d="m69 61q0.98 0.49 2 1c0.5 3.06 0.5 3.06 0 7-3.92 5.22-8.72 7.74-15.02 9-1.98 0-1.98 0-4.98-2q2.95-0.49 6-1 0-1.05 0-2.13c1.36-3.89 3.66-5.16 6.99-7.44 1.89-1.34 3.43-2.75 5.01-4.43z"/>
	<path class="s29" d="m44 23c4.88-0.35 7.77 0.58 12 3q1.48-0.98 3-2c1.65 1.98 3.3 3.96 5 6q-0.49 0.98-1 2-0.98-0.49-2-1-0.15 0.89-0.31 1.81c-0.81 2.58-1.57 3.53-3.69 5.19-2.69 1.19-2.69 1.19-5 2q0-0.98 0-2-0.98-0.49-2-1c2.31-1.32 4.62-2.64 7-4q0-1.48 0-3c-6.33-2.43-12.24-3.59-19-4q0-0.49 0-1 2.95 0 6 0 0-0.98 0-2z"/>
	<path class="s30" d="m210 41q1.97 0.49 4 1-0.49 1.97-1 4 0.99 0.49 2 1-1.97 0.49-4 1 0.25 0.95 0.5 1.94c0.66 4.04 0.58 7.98 0.5 12.06q-1.48-0.49-3-1-0.49-0.98-1-2-0.49 2.46-1 5c-2.52-2.52-2.35-3.51-2.44-7 0.08-6.25 2.24-10.73 5.44-16z"/>
	<path class="s31" d="m285 82q2.95 0 6 0-0.68 2.85-1.38 5.69-0.38 1.57-0.77 3.2c-0.78 2.85-1.51 5.47-2.85 8.11-3.13 0.81-3.13 0.81-6 1 0.29-7 1.5-11.91 5-18z"/>
	<path class="s32" d="m127 54c4.88 0.88 4.88 0.88 6 2q0.27 2.31 0.44 4.63c0.39 4.37 1.2 8.2 2.56 12.37q-1.48 0.49-3 1 0-0.98 0-2-0.93-0.36-1.89-0.74c-3.24-1.94-3.6-4.37-4.65-7.86-0.66-3.44-0.25-6 0.54-9.4z"/>
	<path class="s33" d="m228 36q0 0.49 0 1c-4.45 0.5-4.45 0.5-9 1q-0.49 1.97-1 4c0.96-0.28 0.96-0.28 1.94-0.56q1.01-0.22 2.06-0.44 0.49 0.49 1 1 2.52 0.34 5.06 0.56 1.37 0.13 2.79 0.26c1.06 0.09 1.06 0.09 2.15 0.18 0 2.31 0 4.62 0 7q-0.49 0-1 0 0-2.95 0-6c-4.62 0-9.24 0-14 0q-0.99 1.97-2 4c-1.5 2.75-1.5 2.75-3 5q-0.99 0-2 0c-0.12-2.38-0.12-2.38 0-5q0.99-0.98 2-2 0-1.97 0-4-0.99-0.98-2-2c5.4-4.67 10.05-4.45 17-4z"/>
	<path class="s34" d="m103 36c2.94 1.38 2.94 1.38 5 3q0 0.98 0 2-0.99 0-2 0 0 1.48 0 3c-5.61 0-11.22 0-17 0q1.48-1.97 3-4 0.99 0 2 0 0-1.48 0-3c3.06-1.53 5.62-1.23 9-1z"/>
	<path class="s35" d="m258 59q0.49 0 1 0c0 4.62 0 9.24 0 14-5 1-5 1-6.86-0.11-1.61-2.67-1.06-4.1-0.33-7.08q0.32-1.34 0.65-2.73 0.26-1.02 0.54-2.08 0.95-0.22 1.94-0.44c2.04-0.37 2.04-0.37 3.06-1.56z"/>
	<path class="s36" d="m116 53q0.49 0 1 0c-0.17 6.71-1.46 11.89-6 17-3.31 2-3.31 2-6 3q-1.48-0.98-3-2c0-4 0-4 2.44-6.56q1.26-1.2 2.56-2.44 0.49-1.48 1-3 0.99 0.49 2 1c-0.33 2.31-0.66 4.62-1 7 3.44-2.66 4-5.9 5-10q0.99 0 2 0 0-1.97 0-4z"/>
	<path class="s37" d="m93 67q2.19 0.17 4.38 0.38c1.21 0.1 1.21 0.1 2.46 0.21 2.16 0.41 2.16 0.41 4.16 2.41q-0.49 0.49-1 1 0.99 0.98 2 2c-1.71 1.71-3.91 1.21-6.25 1.25-4.37-0.03-7.37-0.22-10.75-3.25q0-0.98 0-2 2.46 0 5 0 0-0.98 0-2z"/>
	<path class="s38" d="m57 71q0.49 2.46 1 5-2.46 0-5 0 0.49 1.48 1 3c-2.31 0.33-4.62 0.66-7 1q-0.4-1.69-0.81-3.44-0.59-1.75-1.19-3.56-1.48-0.49-3-1c5.07-0.71 9.88-1.11 15-1z"/>
	<path class="s39" d="m153 39q0.99 0.49 2 1c0 3.96 0 7.92 0 12q-1.48 0-3 0-0.62-1.42-1.25-2.88c-1.75-3.13-2.46-3.99-5.75-5.12q0-0.98 0-2c1.98-0.66 3.96-1.32 6-2q0.49 0.49 1 1 0.49-0.98 1-2z"/>
	<path class="s40" d="m273 36q2.51 0.43 5 1c0.66 2.31 1.32 4.62 2 7q-1.97 0-4 0-0.49 0.98-1 2 0.99 0 2 0-0.49 2.46-1 5c-3.35-5.02-4.35-7.8-4-14q0.49-0.49 1-1z"/>
	<path class="s41" d="m282 76q0.18 0.95 0.38 1.94c0.3 1.02 0.3 1.02 0.62 2.06q0.99 0.49 2 1c-0.72 3-1.58 5.93-2.5 8.88-1.12 3.69-2 7.28-2.5 11.12q-0.99-0.49-2-1c1.27-21.27 1.27-21.27 4-24z"/>
	<path class="s42" d="m253 35c1.06 1.88 1.06 1.88 2 4q-0.49 0.98-1 2 1.48 0.98 3 2 0.99-0.98 2-2c-0.33 3.63-0.66 7.26-1 11q-2.46-0.49-5-1 0.49-0.98 1-2-0.95-2.02-2-4c0-3.36 0.57-6.67 1-10z"/>
	<path class="s43" d="m241 55q0.49 0 1 0 0.12 3.87 0.19 7.75c0.04 1.09 0.04 1.09 0.07 2.21 0.05 3.31-0.03 5.63-1.65 8.56-1.61 1.48-1.61 1.48-3.61 1.48q-0.18-0.95-0.38-1.94-0.3-1.01-0.62-2.06-0.99-0.49-2-1 0.99-0.49 2-1 0-2.95 0-6 0.68 0.98 1.37 2 0.81 0.98 1.63 2 0.99 0 2 0c0-3.96 0-7.92 0-12z"/>
	<path class="s44" d="m60 40c-1.49 1.49-1.49 1.49-3 3q1.66 0.37 3.38 0.75c3.62 1.25 3.62 1.25 5 3.13 0.59 2.03 1.18 4.05 1.62 6.12-4.75-1.88-4.75-1.88-7-3q0.49-1.97 1-4c-1.39-0.46-1.39-0.46-2.81-0.94q-3.1-1.03-6.19-2.06 0-0.98 0-2c5.75-2.13 5.75-2.13 8-1z"/>
	<path class="s45" d="m284 73q0.99 0.49 2 1 1.02 0.34 2.06 0.69c1.94 1.31 1.94 1.31 2.69 4.44 0.12 1.42 0.12 1.42 0.25 2.87q-0.99 0-2 0-0.49 0.98-1 2 0-0.98 0-2-1.97 0.49-4 1c-1-2-1-2-2-5 0.94-2.69 0.94-2.69 2-5z"/>
	<path class="s46" d="m136 67c2.69 0.18 5.33 0.62 8 1-1 3-1 3-4 5q1.97 1.48 4 3c-6.75 0.13-6.75 0.13-9-1q-0.06-3.5 0-7 0.49-0.49 1-1z"/>
	<path class="s47" d="m115 53q0.49 1.97 1 4-0.99 0-2 0-0.16 0.93-0.33 1.9-0.24 1.22-0.48 2.48-0.23 1.21-0.46 2.46c-0.73 2.16-0.73 2.16-3.73 4.16-1.08-3.25-0.78-3.87 0-7q-0.49-1.48-1-3 1.48 0 3 0 0.49-1.48 1-3 1.48-0.98 3-2z"/>
	<path class="s48" d="m144 68c2.31 0.66 4.62 1.32 7 2q0 0.98 0 2c-3.97 3.13-7.04 3.29-12 3 0.31-1.94 0.31-1.94 1-4q1.48-0.49 3-1 0.49-0.98 1-2z"/>
	<path class="s49" d="m302 33c2.06 0.44 2.06 0.44 4 1q0 1.48 0 3-1.48 0.49-3 1c-1.14 2.76-1.14 2.76-2 6-0.94 3.31-0.94 3.31-2 6q-1.48 0.49-3 1c0.33-2.31 0.66-4.62 1-7q0.99 0 2 0 0.2-1.06 0.4-2.15 0.27-1.37 0.54-2.79 0.26-1.37 0.52-2.77c0.54-2.29 0.54-2.29 1.54-3.29z"/>
	<path class="s50" d="m220 68q1.97 0.49 4 1-0.49 1.48-1 3c2.64-0.66 5.28-1.32 8-2q0.49 1.97 1 4c-5.04 1.51-9.88 0.65-15 0q0.74-1.2 1.5-2.44c1.58-2.21 1.58-2.21 1.5-3.56z"/>
	<path class="s51" d="m132 57q0.49 0 1 0c0.07 0.85 0.07 0.85 0.15 1.72 0.48 4.99 1.33 9.51 2.85 14.28q-1.48 0.49-3 1 0-0.98 0-2-1.97-0.98-4-2 0-2.46 0-5 0.99-0.49 2-1 0.61-3.48 1-7z"/>
	<path class="s52" d="m36 48q0.98 0.49 2 1c-0.33 2.31-0.66 4.62-1 7q-0.98-1.48-2-3c-0.33 3.96-0.66 7.92-1 12-3-3-3-3-3.29-5.48q0.05-1.33 0.1-2.71 0.04-1.34 0.08-2.73 0.06-1.02 0.11-2.08c0.96-0.15 0.96-0.15 1.94-0.31q1.01-0.34 2.06-0.69 0.49-1.48 1-3z"/>
	<path class="s53" d="m207 58q0.99 0.49 2 1 0 0.98 0 2 0.99 0 2 0 0.99-0.98 2-2 0.46 1.17 0.94 2.38c0.99 2.54 0.99 2.54 2.06 4.62q-2.46-0.49-5-1-0.49 1.97-1 4c-2.06-1.56-2.06-1.56-4-4 0.25-3.75 0.25-3.75 1-7z"/>
	<path class="s54" d="m88 52c0 3.3 0 6.6 0 10q-2.46 0.49-5 1c0-3.3 0-6.6 0-10 4-1 4-1 5-1z"/>
	<path class="s55" d="m110 42c3.16 1.37 3.99 1.99 6 5 0.13 3.19 0.13 3.19 0 6q-1.48 0.49-3 1-0.31-0.83-0.62-1.68-0.4-1.08-0.82-2.2-0.4-1.07-0.81-2.17c-0.73-1.99-0.73-1.99-1.75-3.95q0.49-0.98 1-2z"/>
	<path class="s56" d="m282 51c2.06 1.69 2.06 1.69 4 4-0.25 2.75-0.25 2.75-1 5q-3 0-6 0c-0.75-1.69-0.75-1.69-1-4 1.94-2.75 1.94-2.75 4-5z"/>
	<path class="s57" d="m284 90q1.48 0 3 0c0.13 6.75 0.13 6.75-1 9-2.56 0.63-2.56 0.63-5 1 0.51-3.72 1.12-6.73 3-10z"/>
	<path class="s58" d="m153 53c0.99 0.5 0.99 0.5 2 1q-0.49 0.98-1 2c0.96 0.34 0.96 0.34 1.94 0.69 2.06 1.31 2.06 1.31 2.81 3.94q0.12 1.16 0.25 2.37-0.99 0-2 0-0.49 0.98-1 2c-1.9-1.9-2.94-3.33-3.2-6.05 0.01-1.98 0.1-3.97 0.2-5.95z"/>
	<path class="s59" d="m255 16q0 2.46 0 5-0.99 0-2 0 0 0.98 0 2 0.99 0 2 0c-0.38 1.94-0.38 1.94-1 4-0.99 0.5-0.99 0.5-2 1-1.8-3.83-2.2-6.78-2-11 3-1 3-1 5-1z"/>
	<path class="s60" d="m94 37q0 1.48 0 3c-2.12 2.04-2.12 2.04-4.88 4.19q-1.35 1.07-2.74 2.17c-2.38 1.64-2.38 1.64-4.38 1.64 0.36-2.85 0.89-3.89 3-5.92q1.2-0.9 2.44-1.83 1.2-0.92 2.43-1.86c2.13-1.39 2.13-1.39 4.13-1.39z"/>
	<path class="s5" d="m134 47q0.99 1.48 2 3c-0.99 1.98-1.98 3.96-3 6-1.98-0.66-3.96-1.32-6-2q0.49-2.95 1-6 0.99 1.97 2 4 1.48-0.49 3-1c0.73-2.02 0.73-2.02 1-4z"/>
	<path class="s61" d="m218 37q2.69-0.08 5.38-0.13 1.48-0.03 3.02-0.07c2.6 0.2 2.6 0.2 4.6 2.2-3.75 3-3.75 3-6 3q-0.49-0.98-1-2-2.97-1.09-6-2 0-0.49 0-1z"/>
	<path class="s62" d="m116 53q0.49 0 1 0c-0.18 6.94-1.88 11.42-6 17q-0.99-0.98-2-2 0.68-0.77 1.38-1.56c2-3.01 2.75-5.95 3.62-9.44q0.99 0 2 0 0-1.97 0-4z"/>
	<path class="s63" d="m234.19 14.38q0.89 0.3 1.81 0.62-0.49 1.48-1 3-1.97 0-4 0 0 2.95 0 6-0.99 0-2 0c-0.29-6.05-0.29-6.05 0-8 3-2 3-2 5.19-1.63z"/>
	<path class="s64" d="m159 61q0.99 1.48 2 3 1.98 2.51 4 5-0.99 1.97-2 4-0.99 0-2 0 0-2.95 0-6-1.48-0.49-3-1-0.49-1.48-1-3 0.99 0 2 0 0-0.98 0-2z"/>
	<path class="s65" d="m44 23c5.42-0.37 5.42-0.37 8.38 1.5q0.8 0.74 1.62 1.5c-5.5 1.3-10.47 0.71-16 0q0-0.49 0-1 2.95 0 6 0 0-0.98 0-2z"/>
	<path class="s66" d="m93.8 35.25c1.09 0.37 1.09 0.37 2.2 0.75q-0.88 0.39-1.78 0.8c-2.95 1.6-5.12 3.75-7.54 6.06-0.83 0.56-0.83 0.56-1.68 1.14q-1.48-0.49-3-1 2.07-2.06 4.19-4.06 1.16-1.13 2.35-2.29c2.46-1.65 2.46-1.65 5.26-1.4z"/>
	<path class="s67" d="m32 61c2.27 4.53 1.93 6.18 1 11q-1.97 0-4 0 0 1.48 0 3 0.98 0.49 2 1-1.48 0-3 0-0.49-2.46-1-5 2.46-0.49 5-1c0-2.97 0-5.94 0-9z"/>
	<path class="s68" d="m157 67q1.97 0 4 0 0 2.95 0 6 1.97 0.49 4 1c-3 1-3 1-5.69-0.13-2.31-1.87-2.31-1.87-2.62-4.56q0.15-1.14 0.31-2.31z"/>
	<path class="s69" d="m219.82 42.9q2.37 0.01 4.74 0.04 1.21 0 2.45 0.01 2.99 0.02 5.99 0.05c0 2.31 0 4.62 0 7q-0.49 0-1 0 0-2.95 0-6c-4.62 0-9.24 0-14 0q-0.49 1.48-1 3-0.99-1.48-2-3c1-1 1-1 4.82-1.1z"/>
	<path class="s70" d="m59 50c2.19-0.31 2.19-0.31 5 0 2.81 2.5 2.81 2.5 5 5q-0.49 1.48-1 3-2.25-1.71-4.5-3.44-1.25-0.95-2.53-1.93-0.97-0.8-1.97-1.63 0-0.49 0-1z"/>
	<path class="s71" d="m306 35c1.14 3.41 0.87 4-0.44 7.19q-0.43 1.07-0.87 2.17-0.34 0.81-0.69 1.64c-2.15-3.23-2.2-4.28-2-8q1.97-0.49 4-1 0-0.98 0-2z"/>
	<path class="s72" d="m228 36q0 0.49 0 1-0.88 0.04-1.79 0.08c-5.28 0.38-8.32 1.03-12.21 4.92q-1.48-0.98-3-2c5.4-4.67 10.05-4.45 17-4z"/>
	<path class="s73" d="m280 80c1.07 3.27 0.89 5.43 0.06 8.75-0.29 1.2-0.29 1.2-0.59 2.42q-0.23 0.9-0.47 1.83-0.99 0-2 0 0.17-2.41 0.37-4.81 0.11-1.34 0.22-2.71c0.41-2.48 0.41-2.48 2.41-5.48z"/>
	<path class="s74" d="m295 48q1.48 0.98 3 2c-0.33 2.64-0.66 5.28-1 8q-1.48 0-3 0c-1.47-3.81-0.43-6.29 1-10z"/>
	<path class="s75" d="m50 71c2.31 0 4.62 0 7 0q0.49 2.46 1 5c-2.97-0.5-2.97-0.5-6-1q0-0.98 0-2-0.98 0-2 0 0-0.98 0-2z"/>
	<path class="s76" d="m88 61q0.49 0.98 1 2-0.99 0-2 0 0.99 2.46 2 5-1.48 0.49-3 1c-3-3.75-3-3.75-3-6q2.46-0.98 5-2z"/>
	<path class="s77" d="m37 38q0.49 0 1 0 0 2.95 0 6 2.46-0.98 5-2c-0.31 1.88-0.31 1.88-1 4q-1.48 0.98-3 2c-2.43-3.64-2.16-5.71-2-10z"/>
	<path class="s78" d="m107 59q1.48 0.49 3 1c-0.99 2.97-1.98 5.94-3 9q-1.48-0.49-3-1 0.46-0.83 0.94-1.69c1.12-2.44 1.62-4.67 2.06-7.31z"/>
	<path class="s79" d="m276 43c1.98 0.5 1.98 0.5 4 1-0.55 3.37-1.05 5.08-3 8-1.13-3.75-1.13-3.75 0-6q-0.99 0-2 0 0.49-1.48 1-3z"/>
	<path class="s80" d="m154 40q0.99 0 2 0c1.2 2.41 1.1 3.95 1.06 6.63q-0.01 1.21-0.02 2.47-0.02 0.94-0.04 1.9-0.99 0-2 0c-0.33-3.63-0.66-7.26-1-11z"/>
	<path class="s81" d="m273 36q2.46 0.49 5 1 0 1.97 0 4c-2.97-0.5-2.97-0.5-6-1q0.49-1.97 1-4z"/>
	<path class="s82" d="m217 68q2.46 0.49 5 1-0.99 1.97-2 4c-2.94-0.38-2.94-0.38-6-1q-0.49-0.98-1-2 1.48 0 3 0 0.49-0.98 1-2z"/>
	<path class="s83" d="m136 67c2.64 0.33 5.28 0.66 8 1q-0.49 1.48-1 3c-2.31-0.33-4.62-0.66-7-1q0-1.48 0-3z"/>
	<path class="s84" d="m60 40c-1.49 1.49-1.49 1.49-3 3 2.97 0.5 2.97 0.5 6 1q0 0.49 0 1c-7.43 0.29-7.43 0.29-11-2q0-0.98 0-2c5.75-2.13 5.75-2.13 8-1z"/>
	<path class="s85" d="m59 33q0.98 0.49 2 1c-2.77 3.08-5.06 4.69-9 6q0-0.98 0-2-0.98-0.49-2-1 1.11-0.43 2.25-0.88c2.7-1.04 2.7-1.04 4.94-2.31q0.89-0.4 1.81-0.81z"/>
	<path class="s86" d="m231 70q0.49 1.97 1 4-2.46 0.49-5 1-0.49-1.97-1-4c3-1 3-1 5-1z"/>
	<path class="s87" d="m153 64q2.46 0 5 0 0.49 1.48 1 3-0.99 0-2 0-0.49 1.48-1 3c-1.5-1.31-1.5-1.31-3-3q0-1.48 0-3z"/>
	<path class="s88" d="m139 37c3.31-0.19 3.31-0.19 7 0q1.48 1.48 3 3c-2.97 0-5.94 0-9 0q-0.49-1.48-1-3z"/>
	<path class="s89" d="m136 36q0.99 0 2 0 0 1.48 0 3-0.95 0.4-1.94 0.81c-2.39 1.08-2.39 1.08-3.06 4.19q-1.48-0.49-3-1 1.43-1.76 2.88-3.5 0.79-0.97 1.61-1.97c0.75-0.76 0.75-0.76 1.51-1.53z"/>
	<path class="s90" d="m280 90q0.49 0 1 0c-0.33 3.63-0.66 7.26-1 11q-0.99-0.49-2-1c-0.25-6.63-0.25-6.63 2-10z"/>
	<path class="s91" d="m130 68q2.46 0 5 0 0.49 2.46 1 5-1.48 0.49-3 1 0-0.98 0-2-0.99 0-2 0-0.49-1.97-1-4z"/>
	<path class="s92" d="m207 58c1.74 3.23 2.89 6.51 4 10q-1.48 0-3 0c-1.8-2.76-2.01-3.89-1.63-7.25q0.31-1.35 0.63-2.75z"/>
	<path class="s93" d="m28 45c2.47 0.99 2.47 0.99 5 2q-0.49 2.46-1 5-1.48-0.49-3-1-0.49-2.95-1-6z"/>
	<path class="s94" d="m34 74q1.48 0 3 0 0.49 0.98 1 2c-0.94 2.13-0.94 2.13-2 4q-1.97-0.98-4-2 0.98-1.97 2-4z"/>
	<path class="s95" d="m299 35q0.99 0 2 0c-0.66 2.97-1.32 5.94-2 9q-1.48-0.49-3-1c0.99-2.64 1.98-5.28 3-8z"/>
	<path class="s96" d="m258 65q0.49 0 1 0c0 2.64 0 5.28 0 8q-2.46 0.49-5 1 0.99-0.49 2-1c0.68-1.89 0.68-1.89 1.13-4.06q0.25-1.1 0.5-2.23 0.18-0.84 0.37-1.71z"/>
	<path class="s97" d="m73 58q0.49 0 1 0c0.37 6.52 0.37 6.52-1.5 8.94q-0.74 0.52-1.5 1.06c-1.39-4.18 0.18-6.13 2-10z"/>
	<path class="s98" d="m284 73c2 1 2 1 4 4q-0.95 0.15-1.94 0.31-1.01 0.34-2.06 0.69-0.49 1.48-1 3c-1.21-3.62-0.54-4.64 1-8z"/>
	<path class="s99" d="m281 55q0.99 0.49 2 1-0.49 1.97-1 4-1.48 0-3 0-0.49-1.97-1-4 1.48-0.49 3-1z"/>
	<path class="s100" d="m200 39q0 0.98 0 2-3.52-0.39-7-1-0.49-0.98-1-2c3.4-1.22 4.93-0.86 8 1z"/>
	<path class="s101" d="m297 44q0.99 0 2 0 0 2.95 0 6-1.48 0.49-3 1c0.33-2.31 0.66-4.62 1-7z"/>
	<path class="s102" d="m256 38q1.97 0.49 4 1c0 2.64 0 5.28 0 8-2.5-2.94-3.47-5.18-4-9z"/>
	<path class="s103" d="m94 37q0 1.48 0 3c-3 2-3 2-5.19 1.63q-0.89-0.31-1.81-0.63c4.75-4 4.75-4 7-4z"/>
	<path class="s104" d=""/>
	<path class="s104" d=""/>
	<path class="s104" d=""/>
	<path class="s104" d=""/>
	<path class="s104" d=""/>
	<path class="s104" d=""/>
	<path class="s104" d=""/>
	<path class="s104" d=""/>
	<path class="s104" d=""/>
	<path class="s104" d=""/>
	<path class="s104" d=""/>
	<path class="s104" d=""/>
	<path class="s104" d=""/>
	<path class="s104" d=""/>
	<path class="s104" d=""/>
	<path class="s104" d=""/>
	<path class="s104" d=""/>
	<path class="s104" d=""/>
	<path class="s104" d=""/>
	<path class="s104" d=""/>
	<path class="s104" d=""/>
	<path class="s104" d=""/>
	<path class="s104" d=""/>
	<path class="s104" d=""/>
	<path class="s104" d=""/>
	<path class="s104" d=""/>
	<path class="s104" d=""/>
	<path class="s104" d=""/>
	<path class="s104" d=""/>
	<path class="s104" d=""/>
	<path class="s104" d=""/>
	<path class="s104" d=""/>
	<path class="s104" d=""/>
	<path class="s104" d=""/>
	<path class="s104" d=""/>
	<path class="s104" d=""/>
	<path class="s104" d=""/>
	<path class="s104" d=""/>
	<path class="s104" d=""/>
	<path class="s104" d=""/>
	<path class="s104" d=""/>
	<path class="s104" d=""/>
	<path class="s104" d=""/>
	<path class="s104" d=""/>
	<path class="s104" d=""/>
	<path class="s104" d=""/>
	<path class="s104" d=""/>
	<path class="s104" d=""/>
	<path class="s104" d=""/>
	<path class="s104" d=""/>
	<path class="s104" d=""/>
	<path class="s104" d=""/>
	<path class="s104" d=""/>
	<path class="s104" d=""/>
	<path class="s104" d=""/>
	<path class="s104" d=""/>
	<path class="s104" d=""/>
	<path class="s104" d=""/>
	<path class="s104" d=""/>
	<path class="s104" d=""/>
	<path class="s104" d=""/>
	<path class="s104" d=""/>
	<path class="s104" d=""/>
	<path class="s104" d=""/>
	<path class="s104" d=""/>
	<path class="s104" d=""/>
	<path class="s104" d=""/>
	<path class="s104" d=""/>
	<path class="s104" d=""/>
	<path class="s104" d=""/>
	<path class="s104" d=""/>
	<path class="s104" d=""/>
	<path class="s104" d=""/>
	<path class="s104" d=""/>
	<path class="s104" d=""/>
	<path class="s104" d=""/>
	<path class="s104" d=""/>
	<path class="s104" d=""/>
	<path class="s104" d=""/>
	<path class="s104" d=""/>
	<path class="s104" d=""/>
	<path class="s104" d=""/>
	<path class="s104" d=""/>
	<path class="s104" d=""/>
	<path class="s104" d=""/>
	<path class="s104" d=""/>
	<path class="s104" d=""/>
	<path class="s104" d=""/>
	<path class="s104" d=""/>
	<path class="s104" d=""/>
	<path class="s104" d=""/>
	<path class="s104" d=""/>
	<path class="s104" d=""/>
	<path class="s104" d=""/>
	<path class="s104" d=""/>
	<path class="s104" d=""/>
	<path class="s104" d=""/>
	<path class="s104" d=""/>
	<path class="s104" d=""/>
	<path class="s104" d=""/>
	<path class="s104" d=""/>
	<path class="s104" d=""/>
	<path class="s104" d=""/>
	<path class="s104" d=""/>
	<path class="s104" d=""/>
	<path class="s104" d=""/>
	<path class="s104" d=""/>
	<path class="s104" d=""/>
	<path class="s104" d=""/>
	<path class="s104" d=""/>
	<path class="s104" d=""/>
	<path class="s104" d=""/>
	<path class="s104" d=""/>
	<path class="s104" d=""/>
	<path class="s104" d=""/>
	<path class="s104" d=""/>
	<path class="s104" d=""/>
	<path class="s104" d=""/>
	<path class="s104" d=""/>
	<path class="s104" d=""/>
	<path class="s104" d=""/>
	<path class="s104" d=""/>
	<path class="s104" d=""/>
	<path class="s104" d=""/>
	<path class="s104" d=""/>
	<path class="s104" d=""/>
	<path class="s104" d=""/>
	<path class="s104" d=""/>
	<path class="s104" d=""/>
	<path class="s104" d=""/>
	<path class="s104" d=""/>
	<path class="s104" d=""/>
	<path class="s104" d=""/>
	<path class="s104" d=""/>
	<path class="s104" d=""/>
	<path class="s104" d=""/>
	<path class="s104" d=""/>
	<path class="s104" d=""/>
	<path class="s104" d=""/>
	<path class="s104" d=""/>
	<path class="s104" d=""/>
	<path class="s104" d=""/>
	<path class="s104" d=""/>
	<path class="s104" d=""/>
	<path class="s104" d=""/>
	<path class="s104" d=""/>
	<path class="s104" d=""/>
	<path class="s104" d=""/>
	<path class="s104" d=""/>
	<path class="s104" d=""/>
	<path class="s104" d=""/>
	<path class="s104" d=""/>
	<path class="s104" d=""/>
	<path class="s104" d=""/>
	<path class="s104" d=""/>
	<path class="s104" d=""/>
	<path class="s104" d=""/>
	<path class="s104" d=""/>
	<path class="s104" d=""/>
	<path class="s104" d=""/>
	<path class="s104" d=""/>
	<path class="s104" d=""/>
	<path class="s104" d=""/>
	<path class="s104" d=""/>
	<path class="s104" d=""/>
	<path class="s104" d=""/>
	<path class="s104" d=""/>
	<path class="s104" d=""/>
	<path class="s104" d=""/>
	<path class="s104" d=""/>
	<path class="s104" d=""/>
	<path class="s104" d=""/>
	<path class="s104" d=""/>
	<path class="s104" d=""/>
	<path class="s104" d=""/>
	<path class="s104" d=""/>
	<path class="s104" d=""/>
	<path class="s104" d=""/>
	<path class="s104" d=""/>
	<path class="s104" d=""/>
	<path class="s104" d=""/>
	<path class="s104" d=""/>
	<path class="s104" d=""/>
	<path class="s104" d=""/>
</svg>