<?xml version="1.0" encoding="UTF-8"?>
<svg version="1.1" xmlns="http://www.w3.org/2000/svg" width="668" height="374">
<path d="M0 0 C2.69139215 1.79426143 4.72234173 3.72234173 7 6 C7.928125 4.7934375 7.928125 4.7934375 8.875 3.5625 C11.00911877 0.98900384 11.75673267 0.17097979 14.98828125 -0.2734375 C16.13876953 -0.32371094 16.13876953 -0.32371094 17.3125 -0.375 C18.07175781 -0.42398438 18.83101562 -0.47296875 19.61328125 -0.5234375 C23.40231433 0.3075452 24.72727047 1.89222946 27 5 C27.70595892 8.23141466 27.74502792 11.38852673 27.75 14.6875 C27.78310037 16.39980779 27.81940237 18.1120576 27.859375 19.82421875 C27.86420898 20.57791748 27.86904297 21.33161621 27.87402344 22.1081543 C27.88343937 24.08921021 27.88343937 24.08921021 29 26 C29.680625 25.34 30.36125 24.68 31.0625 24 C34.76272533 21.48069765 36.6031656 21.2933659 41 22 C46.22133542 25.64279215 48.13570424 31.11549105 50 37 C50 37.66 50 38.32 50 39 C50.66 39 51.32 39 52 39 C52.25523437 38.1646875 52.25523437 38.1646875 52.515625 37.3125 C56.94285714 23.37142857 56.94285714 23.37142857 62 20 C66.24648478 19.44952975 68.29726686 19.55144693 71.9375 21.875 C74.8336231 26.26306531 74.53553997 29.86122323 74 35 C73.14545763 38.28944351 71.93418857 41.36729878 70.625 44.5 C68.68291829 49.26046857 66.94558058 53.78500455 66.05078125 58.86328125 C64.97721396 64.77709679 62.81870733 70.1362823 60.5625 75.6875 C60.16740234 76.68072266 59.77230469 77.67394531 59.36523438 78.69726562 C58.25764307 81.47085117 57.13282221 84.23664025 56 87 C55.70996094 87.71889404 55.41992188 88.43778809 55.12109375 89.1784668 C53.38436114 93.39146872 52.09859084 95.77250498 48 98 C43.2727685 98.91106644 40.07012985 98.65518154 35.9375 96.125 C31.32112068 88.67922691 34.49997896 79.57980732 36.24609375 71.515625 C36.49488281 70.35546875 36.74367188 69.1953125 37 68 C37.24234375 66.97777344 37.4846875 65.95554687 37.734375 64.90234375 C38.05827018 61.36331264 37.30375276 59.51803746 35.8125 56.3125 C33.26348222 50.62349103 31.07110856 44.87778296 29 39 C28.08238688 42.13765966 27.86434378 44.98268744 27.82421875 48.24609375 C27.80037109 49.24833984 27.77652344 50.25058594 27.75195312 51.28320312 C27.70906839 53.38195598 27.67777211 55.48097839 27.65820312 57.58007812 C27.446449 65.24754742 27.446449 65.24754742 25.125 69.16015625 C22.26976872 71.63224069 20.78955946 72 17 72 C14.65378141 71.24104929 12.40682634 70.38895892 10.1484375 69.3984375 C9.43945312 69.26695312 8.73046875 69.13546875 8 69 C6.63410235 69.95503999 5.30217782 70.9597545 4 72 C0.37551373 72.78093372 -3.30071141 72.83977604 -7 73 C-8.00160156 73.06445312 -9.00320313 73.12890625 -10.03515625 73.1953125 C-18.22085957 73.51217843 -25.03359008 72.50721146 -31.328125 66.94140625 C-37.14684522 60.73546903 -39.30048446 55.72373872 -39.125 47.125 C-39.10695313 45.97257812 -39.08890625 44.82015625 -39.0703125 43.6328125 C-39.04710937 42.76398438 -39.02390625 41.89515625 -39 41 C-41.97 41.99 -41.97 41.99 -45 43 C-45.31606489 44.95776114 -45.62762832 46.91624906 -45.9375 48.875 C-46.12699219 50.05835938 -46.31648437 51.24171875 -46.51171875 52.4609375 C-46.93119055 55.50126909 -47.12514232 58.43867468 -47.25 61.5 C-47.61481666 65.24545103 -47.94063256 65.92875907 -50.5 69 C-54.19223052 71.50607917 -58.54458535 72.86228718 -63 73 C-65.15625 72.015625 -65.15625 72.015625 -67 71 C-68.94074861 71.27617533 -68.94074861 71.27617533 -71 72 C-75.61321794 73.07968931 -77.6877729 72.72489084 -82 71 C-85.10923555 71.25910296 -87.52771884 71.78871632 -90.375 73.0625 C-95.48726053 74.88830733 -99.67765569 74.44825231 -104.6875 72.75 C-110.96060554 69.43590651 -113.79248226 66.17744157 -117 60 C-117.70125 60.721875 -118.4025 61.44375 -119.125 62.1875 C-125.28318513 68.31089312 -130.28174245 72.26684722 -139.3125 72.375 C-145.96599628 72.2547108 -150.8247574 71.19080751 -155.59375 66.3984375 C-156.79726259 64.9876533 -157.9093015 63.49971044 -159 62 C-159.495 62.70125 -159.99 63.4025 -160.5 64.125 C-168.50440852 73.3300698 -179.96257096 77.85609227 -192 79 C-200.57677433 79.09322581 -207.89121767 78.28944931 -214.65625 72.609375 C-216.92319734 69.89431016 -217.28910026 66.43149441 -217 63 C-216.51273438 62.21753906 -216.02546875 61.43507812 -215.5234375 60.62890625 C-213.6795527 57.44702299 -213.65939301 55.45943118 -213.75 51.8125 C-213.76546875 50.76707031 -213.7809375 49.72164062 -213.796875 48.64453125 C-213.83084881 46.02380114 -213.83084881 46.02380114 -215 44 C-215.09585131 42.35643193 -215.12983511 40.70885358 -215.125 39.0625 C-215.12757813 38.18722656 -215.13015625 37.31195313 -215.1328125 36.41015625 C-215 34 -215 34 -214 31 C-213.6778747 26.81237112 -213.86051166 24.31803342 -215.5625 20.4375 C-217.22442775 16.46332493 -217.32465598 15.05675894 -216 11 C-213.81306672 6.80706676 -211.97699396 3.6513293 -208 1 C-202.56982778 0.4877196 -199.76049066 1.57484438 -195 4 C-193.05024269 4.51294888 -191.09050667 4.9886641 -189.125 5.4375 C-180.73395987 7.44427911 -173.76658586 10.22112854 -168.859375 17.75 C-167.35719255 21.68298677 -168.08278245 25.76372597 -168.3203125 29.90625 C-168.26700486 33.09825776 -168.26700486 33.09825776 -166.1171875 35.40625 C-164.17535488 37.20047138 -164.17535488 37.20047138 -162 37 C-161.2265625 35.7315625 -161.2265625 35.7315625 -160.4375 34.4375 C-157.03606161 29.03370543 -150.93630175 24.33888062 -145 22 C-137.53888087 21.09498414 -132.04844016 21.4933191 -126 26 C-125.38253906 26.45890625 -124.76507813 26.9178125 -124.12890625 27.390625 C-120.21226009 30.4848569 -117.90954587 33.28229844 -116 38 C-115.55269531 37.39671875 -115.10539062 36.7934375 -114.64453125 36.171875 C-106.24691358 25.07054674 -106.24691358 25.07054674 -99 23 C-92.68015613 22.35511797 -85.82882297 23.47470612 -80 26 C-74.84486008 30.68781845 -74.02171831 34.98974758 -73.25 41.75 C-73.02847598 43.45344334 -72.80463046 45.15658688 -72.578125 46.859375 C-72.48950195 47.60670898 -72.40087891 48.35404297 -72.30957031 49.12402344 C-72.08104002 51.084269 -72.08104002 51.084269 -71 53 C-70.98598145 51.84999512 -70.98598145 51.84999512 -70.97167969 50.67675781 C-70.91797227 47.20051897 -70.83432424 43.72562526 -70.75 40.25 C-70.73582031 39.0434375 -70.72164062 37.836875 -70.70703125 36.59375 C-70.67480469 35.43359375 -70.64257812 34.2734375 -70.609375 33.078125 C-70.58842773 32.00981445 -70.56748047 30.94150391 -70.54589844 29.84082031 C-69.87294652 26.33882189 -68.79645451 25.15431502 -66 23 C-62.26308304 22.08339773 -59.43193757 21.93600925 -55.625 22.5 C-52.464028 22.93599614 -50.6202015 22.86800848 -47.5625 22.375 C-42.57328412 21.70863213 -39.50113491 22.78891619 -35 25 C-34.01 26.485 -34.01 26.485 -33 28 C-32.46375 27.731875 -31.9275 27.46375 -31.375 27.1875 C-30.199375 26.5996875 -30.199375 26.5996875 -29 26 C-27.6696875 25.2265625 -27.6696875 25.2265625 -26.3125 24.4375 C-22.20611294 22.65548297 -18.4310753 22.28555819 -14 22 C-14.165 21.195625 -14.33 20.39125 -14.5 19.5625 C-16.00241896 8.85776488 -16.00241896 8.85776488 -13.98828125 5.125 C-9.95196232 0.0826316 -6.24430818 -0.53830243 0 0 Z M7 19 C7 20.98 7 22.96 7 25 C7.33 25 7.66 25 8 25 C8 23.02 8 21.04 8 19 C7.67 19 7.34 19 7 19 Z M-141 43 C-142.80411967 45.75924185 -143.0127245 46.88972103 -142.625 50.25 C-142.41875 51.1575 -142.2125 52.065 -142 53 C-141.01 53.33 -140.02 53.66 -139 54 C-136.792191 52.46172153 -136.792191 52.46172153 -135 50 C-135.14612895 46.30567489 -135.14612895 46.30567489 -136 43 C-137.65 43 -139.3 43 -141 43 Z M-95 43 C-97.5393228 46.41831915 -98.3636198 48.75776898 -98 53 C-95.83125748 52.49396008 -94.00032373 52.00016187 -92 51 C-91.79029441 46.85906302 -91.79029441 46.85906302 -93 43 C-93.66 43 -94.32 43 -95 43 Z M-19 45 C-19.16677282 48.58343976 -19.16677282 48.58343976 -19 52 C-16.525 52.495 -16.525 52.495 -14 53 C-12.39644899 49.49223216 -11.77963136 46.85645121 -12 43 C-15.95457848 42.65176193 -15.95457848 42.65176193 -19 45 Z M-194 47 C-194 50.3 -194 53.6 -194 57 C-189.35082572 58.45286696 -185.4430814 57.77166711 -181 56 C-178.5366901 54.04283243 -178.5366901 54.04283243 -177 52 C-181.4034502 48.40771168 -183.439611 46.8646104 -189.125 46.9375 C-190.73375 46.958125 -192.3425 46.97875 -194 47 Z " fill="#030303" transform="translate(411,143)"/>
<path d="M0 0 C3.875 1.75 3.875 1.75 5 4 C6.9894227 4.28015606 6.9894227 4.28015606 9.375 4.3125 C16.6760327 4.92004648 24.08524386 7.46050188 29.1875 12.9375 C31.2630871 16.44452648 31.84861691 18.0115005 31 22 C28.625 24.75 28.625 24.75 26 27 C25.34 27.66 24.68 28.32 24 29 C25.5159375 29.309375 25.5159375 29.309375 27.0625 29.625 C33.07434452 31.36880074 36.90644925 35.05982931 39.9375 40.4375 C41.15044716 44.50444047 41.79662563 46.79961033 41 51 C37.36134635 56.37262935 33.18501945 60.773393 27 63 C26.3296875 63.27457031 25.659375 63.54914063 24.96875 63.83203125 C19.58470293 65.79720843 14.43160608 66.33657759 8.75 66.4375 C8.07662598 66.45965576 7.40325195 66.48181152 6.70947266 66.50463867 C1.70713384 66.48299691 -1.18710729 65.1812737 -5 62 C-5.875 59.25 -5.875 59.25 -6 57 C-3.525 56.505 -3.525 56.505 -1 56 C-1.165 54.906875 -1.33 53.81375 -1.5 52.6875 C-2.16622112 47.46094841 -2.08701543 42.2595992 -2 37 C-2.66 37 -3.32 37 -4 37 C-4.33 35.02 -4.66 33.04 -5 31 C-4.01 30.67 -3.02 30.34 -2 30 C-2 24.06 -2 18.12 -2 12 C-3.32 11.67 -4.64 11.34 -6 11 C-5.67 9.68 -5.34 8.36 -5 7 C-4.34 7 -3.68 7 -3 7 C-3.061875 6.21625 -3.12375 5.4325 -3.1875 4.625 C-3.125625 3.75875 -3.06375 2.8925 -3 2 C-2.01 1.34 -1.02 0.68 0 0 Z M15 43 C15 46.3 15 49.6 15 53 C19.64917428 54.45286696 23.5569186 53.77166711 28 52 C30.4633099 50.04283243 30.4633099 50.04283243 32 48 C27.5965498 44.40771168 25.560389 42.8646104 19.875 42.9375 C18.26625 42.958125 16.6575 42.97875 15 43 Z " fill="#E9E3D9" transform="translate(202,147)"/>
<path d="M0 0 C1.58004353 1.58004353 1.20093762 3.2468518 1.28125 5.4375 C1.33732422 6.77941406 1.33732422 6.77941406 1.39453125 8.1484375 C1.46484375 10.04947917 1.53515625 11.95052083 1.60546875 13.8515625 C1.66154297 15.19347656 1.66154297 15.19347656 1.71875 16.5625 C1.74904297 17.38878906 1.77933594 18.21507812 1.81054688 19.06640625 C1.79401659 21.00561156 1.79401659 21.00561156 3 22 C7.45179555 52.70764084 7.45179555 52.70764084 3.60546875 59.44140625 C2 61 2 61 0 61 C-0.33 59.68 -0.66 58.36 -1 57 C-1.61875 57.66 -2.2375 58.32 -2.875 59 C-7.32268336 61.84651735 -10.85279736 61.73105197 -16 61 C-22.78004722 59.25094434 -27.13071162 56.86634045 -31 51 C-33.18055838 44.45832486 -32.80138954 37.88799777 -29.9375 31.625 C-27.41572654 27.21365255 -24.87919437 23.7866195 -20 22 C-14.73295721 21.31395661 -10.49700411 21.00199726 -6 24 C-6.144375 23.0821875 -6.28875 22.164375 -6.4375 21.21875 C-8.52253429 7.43435663 -8.52253429 7.43435663 -8 2 C-4.77786243 -0.14809171 -3.72224599 -0.29386153 0 0 Z M-14 41 C-14.16677282 44.58343976 -14.16677282 44.58343976 -14 48 C-11.525 48.495 -11.525 48.495 -9 49 C-7.39644899 45.49223216 -6.77963136 42.85645121 -7 39 C-10.95457848 38.65176193 -10.95457848 38.65176193 -14 41 Z " fill="#E2DED3" transform="translate(406,147)"/>
<path d="M0 0 C3.4375 2 3.4375 2 6 4 C6.33 3.34 6.66 2.68 7 2 C7.99 2.33 8.98 2.66 10 3 C11.16561142 7.22534141 11.903323 11.43973934 12.6484375 15.7578125 C12.76832031 16.41571777 12.88820313 17.07362305 13.01171875 17.75146484 C13.3624335 19.68086735 13.6933107 21.6138434 14.0234375 23.546875 C15.07239273 27.25598069 16.57936923 29.07133562 19 32 C19 36 19 36 18 38 C12.25 36.375 12.25 36.375 10 33 C6.92235266 34.11914449 4.41537733 35.36809576 1.625 37.125 C-1.99439131 39.23828294 -4.79218177 39.47635678 -9 39 C-11.4375 38 -11.4375 38 -13 37 C-13 36.34 -13 35.68 -13 35 C-13.62261719 34.75121094 -14.24523437 34.50242188 -14.88671875 34.24609375 C-18.10511289 32.34837151 -18.50512827 30.10959051 -19.5234375 26.640625 C-20.59083474 20.72619441 -20.31685432 14.49989184 -17.0625 9.3125 C-16.381875 8.549375 -15.70125 7.78625 -15 7 C-14.34 7 -13.68 7 -13 7 C-12.938125 6.401875 -12.87625 5.80375 -12.8125 5.1875 C-12 3 -12 3 -9.875 1.25 C-6.24664687 -0.32754484 -3.92801403 -0.48238769 0 0 Z M1 16 C-1.5393228 19.41831915 -2.3636198 21.75776898 -2 26 C0.16874252 25.49396008 1.99967627 25.00016187 4 24 C4.20970559 19.85906302 4.20970559 19.85906302 3 16 C2.34 16 1.68 16 1 16 Z " fill="#D8D6CF" transform="translate(315,170)"/>
<path d="M0 0 C6.11427722 0.87346817 10.34152217 4.57627047 14.9375 8.5625 C17.8731218 12.9659327 18.00338617 17.33553037 17.9375 22.5625 C17.28119308 25.299656 16.34317963 27.0523578 14.9375 29.5625 C14.31875 30.8928125 14.31875 30.8928125 13.6875 32.25 C10.5928798 36.33931954 7.26358037 38.15690923 2.31640625 39.01953125 C-3.89167731 39.38977757 -7.60532107 38.29963611 -12.40625 34.36328125 C-16.5772252 29.82832944 -17.51613508 26.12503343 -17.875 20 C-17.96394531 18.69933594 -18.05289063 17.39867187 -18.14453125 16.05859375 C-18.0656792 12.69799449 -18.00169817 11.22668715 -16.0625 8.5625 C-14.0390625 6.67578125 -14.0390625 6.67578125 -11.6875 4.875 C-10.91664063 4.27300781 -10.14578125 3.67101562 -9.3515625 3.05078125 C-6.25177778 1.03539221 -3.59850495 0.66094989 0 0 Z M1.9375 17.5625 C0.13338033 20.32174185 -0.0752245 21.45222103 0.3125 24.8125 C0.51875 25.72 0.725 26.6275 0.9375 27.5625 C1.9275 27.8925 2.9175 28.2225 3.9375 28.5625 C6.145309 27.02422153 6.145309 27.02422153 7.9375 24.5625 C7.79137105 20.86817489 7.79137105 20.86817489 6.9375 17.5625 C5.2875 17.5625 3.6375 17.5625 1.9375 17.5625 Z " fill="#DBD9D0" transform="translate(268.0625,168.4375)"/>
<path d="M0 0 C3.875 1.75 3.875 1.75 5 4 C7.02193545 4.31872797 7.02193545 4.31872797 9.4375 4.375 C15.14430862 4.81145145 19.83099017 6.63545295 25 9 C24.34 10.32 23.68 11.64 23 13 C22.13375 12.525625 21.2675 12.05125 20.375 11.5625 C17.14612626 10.06765105 14.50966174 9.41781687 11 9 C11 9.66 11 10.32 11 11 C9.02 11 7.04 11 5 11 C4.97097571 14.27081471 4.95319316 17.5415963 4.9375 20.8125 C4.92912109 21.74126953 4.92074219 22.67003906 4.91210938 23.62695312 C4.90888672 24.51962891 4.90566406 25.41230469 4.90234375 26.33203125 C4.89710693 27.15421143 4.89187012 27.9763916 4.88647461 28.82348633 C4.91258476 31.18172596 4.91258476 31.18172596 6 34 C5.69410915 35.3398954 5.35755262 36.67295629 5 38 C4.92133041 39.58692639 4.89215886 41.17678249 4.90234375 42.765625 C4.90556641 43.65507812 4.90878906 44.54453125 4.91210938 45.4609375 C4.92467773 46.84152344 4.92467773 46.84152344 4.9375 48.25 C4.94201172 49.18585938 4.94652344 50.12171875 4.95117188 51.0859375 C4.96293082 53.39069041 4.97936574 55.69531227 5 58 C18.56707657 58.27874381 18.56707657 58.27874381 30.46875 52.5703125 C33.39123958 49.57326961 34.34532049 47.03719029 35 43 C34.34 43 33.68 43 33 43 C31.62298702 41.71182656 30.29355827 40.37195574 29 39 C28.4225 38.4225 27.845 37.845 27.25 37.25 C26.8375 36.8375 26.425 36.425 26 36 C26.66 34.68 27.32 33.36 28 32 C27.071875 31.690625 26.14375 31.38125 25.1875 31.0625 C23.125 30.375 21.0625 29.6875 19 29 C19 28.34 19 27.68 19 27 C21.64 26.34 24.28 25.68 27 25 C26.01 26.32 25.02 27.64 24 29 C25.5159375 29.309375 25.5159375 29.309375 27.0625 29.625 C33.07434452 31.36880074 36.90644925 35.05982931 39.9375 40.4375 C41.15044716 44.50444047 41.79662563 46.79961033 41 51 C37.36134635 56.37262935 33.18501945 60.773393 27 63 C26.3296875 63.27457031 25.659375 63.54914063 24.96875 63.83203125 C19.58470293 65.79720843 14.43160608 66.33657759 8.75 66.4375 C8.07662598 66.45965576 7.40325195 66.48181152 6.70947266 66.50463867 C1.70713384 66.48299691 -1.18710729 65.1812737 -5 62 C-5.875 59.25 -5.875 59.25 -6 57 C-3.525 56.505 -3.525 56.505 -1 56 C-1.165 54.906875 -1.33 53.81375 -1.5 52.6875 C-2.16622112 47.46094841 -2.08701543 42.2595992 -2 37 C-2.66 37 -3.32 37 -4 37 C-4.33 35.02 -4.66 33.04 -5 31 C-4.01 30.67 -3.02 30.34 -2 30 C-2 24.06 -2 18.12 -2 12 C-3.32 11.67 -4.64 11.34 -6 11 C-5.67 9.68 -5.34 8.36 -5 7 C-4.34 7 -3.68 7 -3 7 C-3.061875 6.21625 -3.12375 5.4325 -3.1875 4.625 C-3.125625 3.75875 -3.06375 2.8925 -3 2 C-2.01 1.34 -1.02 0.68 0 0 Z " fill="#DBD8CF" transform="translate(202,147)"/>
<path d="M0 0 C2.9375 1.875 2.9375 1.875 5 5 C6.05322401 12.10343758 4.33757685 18.0091911 1.625 24.5 C-0.31708171 29.26046857 -2.05441942 33.78500455 -2.94921875 38.86328125 C-4.02278604 44.77709679 -6.18129267 50.1362823 -8.4375 55.6875 C-8.83259766 56.68072266 -9.22769531 57.67394531 -9.63476562 58.69726562 C-10.74235693 61.47085117 -11.86717779 64.23664025 -13 67 C-13.29003906 67.71889404 -13.58007812 68.43778809 -13.87890625 69.1784668 C-15.61563886 73.39146872 -16.90140916 75.77250498 -21 78 C-25.75830677 78.91705549 -28.9368874 78.67258144 -33.0625 76.0625 C-35.66529126 71.94841058 -35.46444522 68.7373412 -35 64 C-34.01 63.505 -34.01 63.505 -33 63 C-32.67 65.31 -32.34 67.62 -32 70 C-28.535 69.505 -28.535 69.505 -25 69 C-24.84144531 68.18917969 -24.68289063 67.37835938 -24.51953125 66.54296875 C-23.07904583 59.70663184 -21.1905918 53.67429154 -18.140625 47.390625 C-16.83884513 44.66223706 -15.86105864 41.89628816 -15 39 C-14.34 39 -13.68 39 -13 39 C-13.061875 37.700625 -13.12375 36.40125 -13.1875 35.0625 C-13.17134009 29.86708936 -11.88912458 25.79660539 -10 21 C-9.10277702 18.70887704 -8.20701056 16.41718331 -7.3125 14.125 C-6.87550781 13.03445312 -6.43851562 11.94390625 -5.98828125 10.8203125 C-4.83465013 8.0262078 -4.83465013 8.0262078 -5 5 C-8.04913228 3.98888907 -8.04913228 3.98888907 -11 5 C-8.53367223 -0.46115434 -5.91499956 -0.60152538 0 0 Z " fill="#010202" transform="translate(480,163)"/>
<path d="M0 0 C2.475 0.99 2.475 0.99 5 2 C3.9017087 7.69819367 2.37590815 12.67796575 0 18 C-2.34171036 24.01519912 -3.48923423 29.56435124 -4 36 C-4.66 36 -5.32 36 -6 36 C-6.3403125 37.60875 -6.3403125 37.60875 -6.6875 39.25 C-7.87410923 44.04729159 -9.80726619 48.43550945 -11.78515625 52.953125 C-12.93494567 55.83684123 -13.67294781 58.60748377 -14.375 61.625 C-15.48818878 65.68716258 -15.48818878 65.68716258 -17.73828125 67.0625 C-19.6875 67.625 -19.6875 67.625 -23 68 C-23.33 67.67 -23.66 67.34 -24 67 C-23.82611399 58.13181339 -22.89577767 49.02381083 -19.75 40.6875 C-18.8131948 37.33061472 -19.36740947 36.02029248 -21 33 C-21.66 32.01 -22.32 31.02 -23 30 C-23.49867149 28.66016286 -23.95352138 27.30358659 -24.375 25.9375 C-25.46967248 22.48507141 -26.75126724 19.19914296 -28.1875 15.875 C-29.92423544 11.64872364 -30.39428028 8.53422323 -30 4 C-28.35 3.67 -26.7 3.34 -25 3 C-24.505 4.155 -24.01 5.31 -23.5 6.5 C-20.26847822 13.79434083 -16.59834922 20.88190627 -13 28 C-10.41879025 25.41879025 -9.70385292 22.9172628 -8.4375 19.5 C-6.05652174 13.11304348 -6.05652174 13.11304348 -5 11 C-4.34 11 -3.68 11 -3 11 C-2.86722656 10.28972656 -2.73445313 9.57945312 -2.59765625 8.84765625 C-2.42105469 7.92855469 -2.24445313 7.00945312 -2.0625 6.0625 C-1.80146484 4.68771484 -1.80146484 4.68771484 -1.53515625 3.28515625 C-1 1 -1 1 0 0 Z " fill="#E5E0D5" transform="translate(471,166)"/>
<path d="M0 0 C1.83372513 1.83372513 1.36981026 4.76453565 1.53515625 7.23828125 C1.66567383 9.18250977 1.66567383 9.18250977 1.79882812 11.16601562 C1.84209229 11.84833252 1.88535645 12.53064941 1.92993164 13.23364258 C2.0595518 15.2662681 2.19809025 17.29813063 2.33789062 19.33007812 C2.85491779 27.23320771 3.12588504 35.08043254 3 43 C1.68 43 0.36 43 -1 43 C-2.7511573 44.4166747 -2.7511573 44.4166747 -4 46 C-5.25168929 40.6088658 -5.06648892 35.51858026 -5 30 C-9.62 30 -14.24 30 -19 30 C-19.66 31.32 -20.32 32.64 -21 34 C-21.515625 34.721875 -22.03125 35.44375 -22.5625 36.1875 C-24.52952687 40.03603083 -24.73029365 43.73119952 -25 48 C-25.99 47.67 -26.98 47.34 -28 47 C-28.33 46.34 -28.66 45.68 -29 45 C-29.495 47.475 -29.495 47.475 -30 50 C-32.51522009 47.48477991 -32.35317085 46.49221899 -32.4375 43 C-32.29042026 35.99532735 -30.08679069 30.55983135 -25.49609375 25.265625 C-21.19507565 21.57607695 -16.96151392 21.49812048 -11.453125 21.62890625 C-9 22 -9 22 -6 24 C-6.144375 23.0821875 -6.28875 22.164375 -6.4375 21.21875 C-8.52253429 7.43435663 -8.52253429 7.43435663 -8 2 C-4.77786243 -0.14809171 -3.72224599 -0.29386153 0 0 Z " fill="#EAE6DA" transform="translate(406,147)"/>
<path d="M0 0 C0.81223223 19.74037426 1.1409647 39.25691247 0 59 C-2.475 59.495 -2.475 59.495 -5 60 C-7.42528718 57.77602124 -8.85596841 55.93795234 -9.36230469 52.640625 C-9.46774079 49.75104956 -9.44901613 46.89057368 -9.375 44 C-9.36283447 42.9692334 -9.35066895 41.9384668 -9.33813477 40.87646484 C-9.2096406 34.31758614 -8.59652343 28.1243216 -7.3828125 21.6796875 C-6.79731787 17.58122508 -7.25570558 14.05978775 -8 10 C-8.33 9.67 -8.66 9.34 -9 9 C-9.26293056 4.96839809 -9.29404844 3.44107266 -7 0 C-4.02096037 -1.15317663 -3.13440869 -1.0448029 0 0 Z " fill="#E8E5DB" transform="translate(428,147)"/>
<path d="M0 0 C16.95649909 -0.74081792 16.95649909 -0.74081792 24 4 C25.2375 4.804375 25.2375 4.804375 26.5 5.625 C26.995 6.07875 27.49 6.5325 28 7 C28 7.66 28 8.32 28 9 C28.66 9 29.32 9 30 9 C30.0578082 11.83260193 30.03526101 13.41434811 29 16 C25.21090549 19.83429245 20.69076975 23.77960602 15.09887695 24.11352539 C14.40238037 24.10828857 13.70588379 24.10305176 12.98828125 24.09765625 C11.85229492 24.09282227 11.85229492 24.09282227 10.69335938 24.08789062 C9.90767578 24.07951172 9.12199219 24.07113281 8.3125 24.0625 C7.51521484 24.05798828 6.71792969 24.05347656 5.89648438 24.04882812 C3.93095743 24.0370585 1.96546915 24.01912348 0 24 C-0.19738568 20.75052139 -0.3811754 17.50041127 -0.5625 14.25 C-0.61857422 13.32960937 -0.67464844 12.40921875 -0.73242188 11.4609375 C-0.78076172 10.57148438 -0.82910156 9.68203125 -0.87890625 8.765625 C-0.9260376 7.94868164 -0.97316895 7.13173828 -1.02172852 6.29003906 C-1.00020095 4.02117925 -0.64612135 2.16679079 0 0 Z M10 9 C10 12.3 10 15.6 10 19 C14.64917428 20.45286696 18.5569186 19.77166711 23 18 C25.4633099 16.04283243 25.4633099 16.04283243 27 14 C22.5965498 10.40771168 20.560389 8.8646104 14.875 8.9375 C13.26625 8.958125 11.6575 8.97875 10 9 Z " fill="#060606" transform="translate(207,181)"/>
<path d="M0 0 C2.475 0.495 2.475 0.495 5 1 C5.33 2.65 5.66 4.3 6 6 C6.7425 5.175 7.485 4.35 8.25 3.5 C12.78971334 -0.39274936 18.3668847 0.5898217 24 1 C24.66 2.32 25.32 3.64 26 5 C25.34 5 24.68 5 24 5 C24 5.66 24 6.32 24 7 C20.7 7.33 17.4 7.66 14 8 C11.18359518 17.35258961 10.35664252 26.30916177 10 36 C8.68 36 7.36 36 6 36 C6 36.66 6 37.32 6 38 C4.34385343 38.38218767 2.67542976 38.71395102 1 39 C0 38 0 38 -0.11352539 34.39819336 C-0.11336625 32.79540144 -0.10767063 31.1926044 -0.09765625 29.58984375 C-0.0962413 28.74780899 -0.09482635 27.90577423 -0.09336853 27.03822327 C-0.08775263 24.33794665 -0.07519748 21.63775172 -0.0625 18.9375 C-0.05748705 17.11132932 -0.05292379 15.28515734 -0.04882812 13.45898438 C-0.03777804 8.97262458 -0.02050279 4.48632616 0 0 Z " fill="#DEDBD1" transform="translate(343,169)"/>
<path d="M0 0 C1.26457031 0.04640625 2.52914063 0.0928125 3.83203125 0.140625 C5.74048828 0.19476563 5.74048828 0.19476563 7.6875 0.25 C8.66332031 0.29640625 9.63914062 0.3428125 10.64453125 0.390625 C12.06321622 8.36301772 11.84231681 15.24304419 7.64453125 22.390625 C4.02923711 24.79106322 0.93085868 24.91701609 -3.35546875 24.390625 C-6.53430537 22.31747069 -8.00565423 20.7078278 -8.98828125 17.0078125 C-9.54940454 13.00831674 -9.73267869 10.25820786 -8.10546875 6.515625 C-7.52796875 5.814375 -6.95046875 5.113125 -6.35546875 4.390625 C-5.97261719 3.69195312 -5.58976562 2.99328125 -5.1953125 2.2734375 C-3.35546875 0.390625 -3.35546875 0.390625 0 0 Z M1.64453125 11.390625 C1.47775843 14.97406476 1.47775843 14.97406476 1.64453125 18.390625 C4.11953125 18.885625 4.11953125 18.885625 6.64453125 19.390625 C8.24808226 15.88285716 8.86489989 13.24707621 8.64453125 9.390625 C4.68995277 9.04238693 4.68995277 9.04238693 1.64453125 11.390625 Z " fill="#040505" transform="translate(390.35546875,176.609375)"/>
<path d="M0 0 C3.875 1.75 3.875 1.75 5 4 C7.02193545 4.31872797 7.02193545 4.31872797 9.4375 4.375 C15.14430862 4.81145145 19.83099017 6.63545295 25 9 C24.34 10.32 23.68 11.64 23 13 C22.13375 12.525625 21.2675 12.05125 20.375 11.5625 C17.14612626 10.06765105 14.50966174 9.41781687 11 9 C11 9.66 11 10.32 11 11 C9.02 11 7.04 11 5 11 C4.97097571 14.27081471 4.95319316 17.5415963 4.9375 20.8125 C4.92912109 21.74126953 4.92074219 22.67003906 4.91210938 23.62695312 C4.90888672 24.51962891 4.90566406 25.41230469 4.90234375 26.33203125 C4.89710693 27.15421143 4.89187012 27.9763916 4.88647461 28.82348633 C4.91258476 31.18172596 4.91258476 31.18172596 6 34 C4.515 34.495 4.515 34.495 3 35 C2.67 35.66 2.34 36.32 2 37 C0.0625 37.6875 0.0625 37.6875 -2 38 C-2.66 37.67 -3.32 37.34 -4 37 C-4.625 33.9375 -4.625 33.9375 -5 31 C-4.01 30.67 -3.02 30.34 -2 30 C-2 24.06 -2 18.12 -2 12 C-3.32 11.67 -4.64 11.34 -6 11 C-5.67 9.68 -5.34 8.36 -5 7 C-4.34 7 -3.68 7 -3 7 C-3.061875 6.21625 -3.12375 5.4325 -3.1875 4.625 C-3.125625 3.75875 -3.06375 2.8925 -3 2 C-2.01 1.34 -1.02 0.68 0 0 Z " fill="#E7E3DA" transform="translate(202,147)"/>
<path d="M0 0 C3.39302462 2.34901705 4.93588123 5.03373913 6 9 C5.75 11.75 5.75 11.75 5 14 C4.01 14.495 4.01 14.495 3 15 C2.67 13.02 2.34 11.04 2 9 C0.35 9 -1.3 9 -3 9 C-3.33 12.3 -3.66 15.6 -4 19 C-0.06924356 18.42547254 -0.06924356 18.42547254 3 16 C3.33 16.99 3.66 17.98 4 19 C0.79160245 22.20839755 -1.41886164 24.36065626 -6.0625 24.625 C-10.72952305 23.88420269 -12.12403757 22.66031582 -15 19 C-16.53597454 15.92805092 -16.2265038 13.39755707 -16 10 C-12.78141918 1.7926189 -8.8533786 -1.6141519 0 0 Z " fill="#050606" transform="translate(273,177)"/>
<path d="M0 0 C3.98932675 3.05848384 4.31944295 7.26739062 5 12 C5.13361545 14.36628645 5.10094731 16.62773818 5 19 C4.236875 19.268125 3.47375 19.53625 2.6875 19.8125 C0.00723203 20.7691999 0.00723203 20.7691999 -1.3515625 22.5546875 C-3.6134145 24.53782788 -5.09721506 24.36927276 -8.0625 24.3125 C-8.94035156 24.30863281 -9.81820313 24.30476563 -10.72265625 24.30078125 C-13 24 -13 24 -15 22 C-16.0249866 14.9204414 -15.15412607 8.86464857 -11 3 C-7.75063442 -0.58550685 -4.68975583 -0.51160973 0 0 Z M-1 9 C-3.5393228 12.41831915 -4.3636198 14.75776898 -4 19 C-1.83125748 18.49396008 -0.00032373 18.00016187 2 17 C2.20970559 12.85906302 2.20970559 12.85906302 1 9 C0.34 9 -0.32 9 -1 9 Z " fill="#0A0B0B" transform="translate(317,177)"/>
<path d="M0 0 C0.99 0.66 1.98 1.32 3 2 C2.67 2.99 2.34 3.98 2 5 C1.01 5 0.02 5 -1 5 C-1 5.66 -1 6.32 -1 7 C-2.60875 7.495 -2.60875 7.495 -4.25 8 C-8.13978548 9.70424678 -9.6915445 11.76157151 -11.34765625 15.62109375 C-13.23617719 22.50797549 -12.35833686 29.36717758 -10 36 C-11.485 36.495 -11.485 36.495 -13 37 C-13 36.34 -13 35.68 -13 35 C-13.62261719 34.75121094 -14.24523437 34.50242188 -14.88671875 34.24609375 C-18.10511289 32.34837151 -18.50512827 30.10959051 -19.5234375 26.640625 C-20.59083474 20.72619441 -20.31685432 14.49989184 -17.0625 9.3125 C-16.381875 8.549375 -15.70125 7.78625 -15 7 C-14.34 7 -13.68 7 -13 7 C-12.938125 6.401875 -12.87625 5.80375 -12.8125 5.1875 C-12 3 -12 3 -9.875 1.25 C-6.34118181 -0.28644269 -3.81926881 -0.353636 0 0 Z " fill="#E8E6DC" transform="translate(315,170)"/>
<path d="M0 0 C2.375 0 2.375 0 5 1 C6.27059562 3.39458404 7.15062642 5.46072055 8 8 C8.49782485 9.36763458 9.0004372 10.73353594 9.5078125 12.09765625 C9.7543457 12.7642627 10.00087891 13.43086914 10.25488281 14.11767578 C11.77402238 17.95534486 13.84896467 21.48791134 16 25 C16.66 25 17.32 25 18 25 C17.625 26.9375 17.625 26.9375 17 29 C16.34 29.33 15.68 29.66 15 30 C14.34 29.67 13.68 29.34 13 29 C12.67 30.98 12.34 32.96 12 35 C6.10253906 27.72646484 6.10253906 27.72646484 4.625 22.9375 C3.53032752 19.48507141 2.24873276 16.19914296 0.8125 12.875 C-0.91812601 8.64091118 -1.48342864 5.54422925 -1 1 C-0.67 0.67 -0.34 0.34 0 0 Z " fill="#DEDCD2" transform="translate(442,169)"/>
<path d="M0 0 C5.36535039 0.04631957 10.02886976 1.26724273 14.5 4.3125 C14.83 5.3025 15.16 6.2925 15.5 7.3125 C9.75 11.3125 9.75 11.3125 7.5 11.3125 C7.17 12.3025 6.84 13.2925 6.5 14.3125 C4.50390625 15.48046875 4.50390625 15.48046875 2.0625 16.5 C1.25941406 16.84417969 0.45632812 17.18835938 -0.37109375 17.54296875 C-2.5 18.3125 -2.5 18.3125 -4.5 18.3125 C-5.71293283 12.70268566 -5.83111384 7.02908302 -5.5 1.3125 C-3.89673958 -0.29076042 -2.21699591 0.06500451 0 0 Z " fill="#050505" transform="translate(211.5,158.6875)"/>
<path d="M0 0 C0.33 0.66 0.66 1.32 1 2 C1.66 2.33 2.32 2.66 3 3 C3 4.66666667 3 6.33333333 3 8 C3.66 8.33 4.32 8.66 5 9 C4.01 9.495 4.01 9.495 3 10 C4.32 10.33 5.64 10.66 7 11 C7 9.35 7 7.7 7 6 C7.33 6 7.66 6 8 6 C8 14.58 8 23.16 8 32 C5.525 32.495 5.525 32.495 3 33 C0.48841388 30.74105864 -0.87548677 28.89494979 -1.34619141 25.51171875 C-1.43015455 22.49934776 -1.39711551 19.51231224 -1.3125 16.5 C-1.30283203 15.46746094 -1.29316406 14.43492187 -1.28320312 13.37109375 C-1.21495524 8.77177952 -1.00801779 4.50082226 0 0 Z " fill="#D2D0C8" transform="translate(420,174)"/>
<path d="M0 0 C0.66 0.33 1.32 0.66 2 1 C1.67 8.92 1.34 16.84 1 25 C1.99 25 2.98 25 4 25 C3.67 25.99 3.34 26.98 3 28 C1.33333333 28 -0.33333333 28 -2 28 C-2.33 28.66 -2.66 29.32 -3 30 C-5.86724686 29.42655063 -6.8614515 29.1385485 -9 27 C-8.625 24.375 -8.625 24.375 -8 22 C-6.68 22 -5.36 22 -4 22 C-4.165 20.88625 -4.33 19.7725 -4.5 18.625 C-5.12094505 13.74489662 -5.09057874 8.91138052 -5 4 C-4.360625 3.896875 -3.72125 3.79375 -3.0625 3.6875 C-2.381875 3.460625 -1.70125 3.23375 -1 3 C-0.67 2.01 -0.34 1.02 0 0 Z " fill="#EAE8DD" transform="translate(205,181)"/>
<path d="M0 0 C0.03738281 0.59167969 0.07476562 1.18335938 0.11328125 1.79296875 C0.17902344 2.58316406 0.24476563 3.37335938 0.3125 4.1875 C0.37050781 4.96480469 0.42851562 5.74210938 0.48828125 6.54296875 C1.13497005 9.6480623 2.0164248 11.51212602 4 14 C6.92391316 15.24305309 6.92391316 15.24305309 10.1875 15.8125 C11.27417969 16.04582031 12.36085938 16.27914062 13.48046875 16.51953125 C14.72763672 16.75736328 14.72763672 16.75736328 16 17 C15.67 17.66 15.34 18.32 15 19 C15.66 19.66 16.32 20.32 17 21 C15.30529665 22.69470335 13.25978877 22.33208662 10.9375 22.4375 C5.50087597 22.40918425 2.66374149 21.06198608 -1.44140625 17.60546875 C-3.8406995 15.1340163 -4.96273962 13.55667009 -5.1953125 10.08203125 C-5.17210937 9.00308594 -5.14890625 7.92414063 -5.125 6.8125 C-5.10695312 5.72582031 -5.08890625 4.63914063 -5.0703125 3.51953125 C-5.04710937 2.68808594 -5.02390625 1.85664063 -5 1 C-1.125 0 -1.125 0 0 0 Z " fill="#E6E2D7" transform="translate(257,185)"/>
<path d="M0 0 C2.475 0.99 2.475 0.99 5 2 C3.9017087 7.69819367 2.37590815 12.67796575 0 18 C-2.34171036 24.01519912 -3.48923423 29.56435124 -4 36 C-4.33 36 -4.66 36 -5 36 C-5 32.37 -5 28.74 -5 25 C-5.99 25 -6.98 25 -8 25 C-9.37095624 21.30962722 -8.60010967 19.29116165 -7.0625 15.75 C-6.68222656 14.85796875 -6.30195313 13.9659375 -5.91015625 13.046875 C-5.60980469 12.37140625 -5.30945313 11.6959375 -5 11 C-4.34 11 -3.68 11 -3 11 C-2.86722656 10.28972656 -2.73445313 9.57945312 -2.59765625 8.84765625 C-2.42105469 7.92855469 -2.24445313 7.00945312 -2.0625 6.0625 C-1.88847656 5.14597656 -1.71445312 4.22945312 -1.53515625 3.28515625 C-1 1 -1 1 0 0 Z " fill="#B2B0A9" transform="translate(471,166)"/>
<path d="M0 0 C0.99 0.33 1.98 0.66 3 1 C5.29020691 8.50678932 5.57825945 16.19779983 6 24 C5.34 24 4.68 24 4 24 C3.67 24.66 3.34 25.32 3 26 C-0.90912909 21.69131905 -1.08437985 16.78390667 -1.9609375 11.21484375 C-2.70005701 7.81894011 -2.70005701 7.81894011 -5.6015625 6.19140625 C-6.39304687 5.79824219 -7.18453125 5.40507812 -8 5 C-8 4.34 -8 3.68 -8 3 C-6.02 2.34 -4.04 1.68 -2 1 C-1.67 1.33 -1.34 1.66 -1 2 C-0.67 1.34 -0.34 0.68 0 0 Z " fill="#D1CEC8" transform="translate(322,172)"/>
<path d="M0 0 C-1.485 1.485 -1.485 1.485 -3 3 C-1.4840625 3.309375 -1.4840625 3.309375 0.0625 3.625 C6.07434452 5.36880074 9.90644925 9.05982931 12.9375 14.4375 C14.06930221 18.23236623 14.45386404 21.06651168 14 25 C12.5 26.9375 12.5 26.9375 11 28 C10.33333333 26 9.66666667 24 9 22 C8.67 22 8.34 22 8 22 C8 20.35 8 18.7 8 17 C7.34 17 6.68 17 6 17 C4.62298702 15.71182656 3.29355827 14.37195574 2 13 C1.4225 12.4225 0.845 11.845 0.25 11.25 C-0.36875 10.63125 -0.36875 10.63125 -1 10 C-0.34 8.68 0.32 7.36 1 6 C-0.3921875 5.5359375 -0.3921875 5.5359375 -1.8125 5.0625 C-3.875 4.375 -5.9375 3.6875 -8 3 C-8 2.34 -8 1.68 -8 1 C-2.25 -1.125 -2.25 -1.125 0 0 Z " fill="#DBD8D0" transform="translate(229,173)"/>
<path d="M0 0 C0.66 0.33 1.32 0.66 2 1 C2 1.66 2 2.32 2 3 C2.66 3 3.32 3 4 3 C4.66 2.34 5.32 1.68 6 1 C6.268125 1.763125 6.53625 2.52625 6.8125 3.3125 C7.99827525 5.99609663 8.6814786 7.26110895 11 9 C14.10007201 10.20049407 14.10007201 10.20049407 17 11 C16.67 11.99 16.34 12.98 16 14 C18.64 13.34 21.28 12.68 24 12 C24.33 13.32 24.66 14.64 25 16 C19.35011876 17.69496437 13.0817784 17.33855021 7.6796875 14.9921875 C3.72334252 12.67093713 0.62484378 10.44123967 -1 6 C-0.6875 2.6875 -0.6875 2.6875 0 0 Z " fill="#DFDCD3" transform="translate(376,191)"/>
<path d="M0 0 C0.33 0.99 0.66 1.98 1 3 C0.01 3.495 0.01 3.495 -1 4 C-1.33 4.99 -1.66 5.98 -2 7 C-0.68 7.33 0.64 7.66 2 8 C2 13.94 2 19.88 2 26 C1.34 26.33 0.68 26.66 0 27 C0 28.98 0 30.96 0 33 C0.66 33 1.32 33 2 33 C2.33 39.27 2.66 45.54 3 52 C1.68 52 0.36 52 -1 52 C-0.98839844 51.01257813 -0.97679687 50.02515625 -0.96484375 49.0078125 C-0.95582031 47.72648437 -0.94679687 46.44515625 -0.9375 45.125 C-0.92589844 43.84882813 -0.91429687 42.57265625 -0.90234375 41.2578125 C-0.76823431 38.11335348 -0.76823431 38.11335348 -2 36 C-2.09585131 34.35643193 -2.12983511 32.70885358 -2.125 31.0625 C-2.12757813 30.18722656 -2.13015625 29.31195313 -2.1328125 28.41015625 C-2 26 -2 26 -1 23 C-0.6778747 18.81237112 -0.86051166 16.31803342 -2.5625 12.4375 C-4.16774996 8.5988588 -4.24807421 6.92251894 -3 3 C-1.4375 1.125 -1.4375 1.125 0 0 Z " fill="#0A0B0B" transform="translate(198,151)"/>
<path d="M0 0 C0 0.99 0 1.98 0 3 C-0.99 3.99 -1.98 4.98 -3 6 C1.29 6 5.58 6 10 6 C10 6.33 10 6.66 10 7 C9.11248047 7.00386719 9.11248047 7.00386719 8.20703125 7.0078125 C3.45963907 7.16950317 3.45963907 7.16950317 -0.640625 9.296875 C-2.14617899 11.07299795 -2.14617899 11.07299795 -4 14 C-4.99 15.485 -4.99 15.485 -6 17 C-7.65 16.67 -9.3 16.34 -11 16 C-11 19.3 -11 22.6 -11 26 C-11.33 26 -11.66 26 -12 26 C-12.22237877 23.58388467 -12.42832339 21.1682283 -12.625 18.75 C-12.68945312 18.06808594 -12.75390625 17.38617188 -12.8203125 16.68359375 C-13.11623533 12.87358734 -13.32970427 10.12487279 -11 7 C-8.90625 5.078125 -8.90625 5.078125 -6.5 3.25 C-5.7059375 2.63640625 -4.911875 2.0228125 -4.09375 1.390625 C-2 0 -2 0 0 0 Z " fill="#D1D0C7" transform="translate(263,170)"/>
<path d="M0 0 C0.66 1.32 1.32 2.64 2 4 C1.34 4 0.68 4 0 4 C0 4.66 0 5.32 0 6 C-3.3 6.33 -6.6 6.66 -10 7 C-10.66 8.98 -11.32 10.96 -12 13 C-12.433125 12.360625 -12.86625 11.72125 -13.3125 11.0625 C-14.91239177 8.73253997 -14.91239177 8.73253997 -18 8 C-18 5 -18 5 -15.75 2.3125 C-11.19366499 -1.3633838 -5.52880361 -0.40258279 0 0 Z " fill="#DEDBD2" transform="translate(367,170)"/>
<path d="M0 0 C0.66 0.33 1.32 0.66 2 1 C2.5 4.0625 2.5 4.0625 2 8 C-1.91752106 13.22336142 -6.72085493 15.74417099 -13.01953125 17.00390625 C-15 17 -15 17 -18 15 C-16.02 14.67 -14.04 14.34 -12 14 C-12 13.29875 -12 12.5975 -12 11.875 C-10.64432709 7.97744039 -8.34244903 6.70609989 -5.0078125 4.4296875 C-3.12379549 3.08815009 -1.58122954 1.68067794 0 0 Z " fill="#E1DED6" transform="translate(238,194)"/>
<path d="M0 0 C4.87664009 -0.34833144 7.77050005 0.58314288 12 3 C12.99 2.34 13.98 1.68 15 1 C16.65 2.98 18.3 4.96 20 7 C19.67 7.66 19.34 8.32 19 9 C18.34 8.67 17.68 8.34 17 8 C16.896875 8.598125 16.79375 9.19625 16.6875 9.8125 C15.87621677 12.39385573 15.11887297 13.33517123 13 15 C10.3125 16.1875 10.3125 16.1875 8 17 C8 16.34 8 15.68 8 15 C7.34 14.67 6.68 14.34 6 14 C8.31 12.68 10.62 11.36 13 10 C13 9.01 13 8.02 13 7 C6.67162748 4.56953809 0.76215448 3.40939975 -6 3 C-6 2.67 -6 2.34 -6 2 C-4.02 2 -2.04 2 0 2 C0 1.34 0 0.68 0 0 Z " fill="#D6D3CB" transform="translate(213,156)"/>
<path d="M0 0 C1.32 0.33 2.64 0.66 4 1 C3.67 2.32 3.34 3.64 3 5 C3.66 5.33 4.32 5.66 5 6 C3.68 6.33 2.36 6.66 1 7 C1.165 7.639375 1.33 8.27875 1.5 8.9375 C2.15932515 12.97586652 2.08003779 16.91807258 2 21 C1.01 20.67 0.02 20.34 -1 20 C-1.33 19.34 -1.66 18.68 -2 18 C-2.33 19.65 -2.66 21.3 -3 23 C-5.51522009 20.48477991 -5.35317085 19.49221899 -5.4375 16 C-5.3631655 9.74764272 -3.20011384 5.26875885 0 0 Z " fill="#E6E3DA" transform="translate(379,174)"/>
<path d="M0 0 C1.98 0 3.96 0 6 0 C5.54619105 1.89692143 5.08675008 3.79249595 4.625 5.6875 C4.36976563 6.74324219 4.11453125 7.79898438 3.8515625 8.88671875 C3.07114159 11.73990897 2.33866463 14.36091831 1 17 C-2.125 17.8125 -2.125 17.8125 -5 18 C-4.71311275 10.99995111 -3.49595688 6.08973134 0 0 Z " fill="#D5D1C5" transform="translate(454,215)"/>
<path d="M0 0 C4.875 0.875 4.875 0.875 6 2 C6.18554737 3.53739248 6.32319202 5.08067583 6.4375 6.625 C6.82695247 10.99691804 7.64169124 14.83451979 9 19 C8.01 19.33 7.02 19.66 6 20 C6 19.34 6 18.68 6 18 C5.37738281 17.75636719 4.75476563 17.51273438 4.11328125 17.26171875 C0.86643984 15.32321639 0.51168708 12.88963771 -0.5390625 9.3984375 C-1.20068322 5.95576698 -0.7948852 3.39632768 0 0 Z " fill="#EDE8DE" transform="translate(296,187)"/>
<path d="M0 0 C0 0.33 0 0.66 0 1 C-4.455 1.495 -4.455 1.495 -9 2 C-9.33 3.32 -9.66 4.64 -10 6 C-9.0409375 5.7215625 -9.0409375 5.7215625 -8.0625 5.4375 C-7.381875 5.293125 -6.70125 5.14875 -6 5 C-5.67 5.33 -5.34 5.66 -5 6 C-3.31816052 6.23287008 -1.6287584 6.41264166 0.0625 6.5625 C0.98160156 6.64628906 1.90070313 6.73007813 2.84765625 6.81640625 C3.91306641 6.90728516 3.91306641 6.90728516 5 7 C5 9.31 5 11.62 5 14 C4.67 14 4.34 14 4 14 C4 12.02 4 10.04 4 8 C-0.62 8 -5.24 8 -10 8 C-10.66 9.32 -11.32 10.64 -12 12 C-13.5 14.75 -13.5 14.75 -15 17 C-15.66 17 -16.32 17 -17 17 C-17.125 14.625 -17.125 14.625 -17 12 C-16.34 11.34 -15.68 10.68 -15 10 C-15 8.68 -15 7.36 -15 6 C-15.66 5.34 -16.32 4.68 -17 4 C-11.59696035 -0.67289916 -6.95230941 -0.44534366 0 0 Z " fill="#D6D4CA" transform="translate(397,169)"/>
<path d="M0 0 C2.9375 1.375 2.9375 1.375 5 3 C5 3.66 5 4.32 5 5 C4.34 5 3.68 5 3 5 C3 5.99 3 6.98 3 8 C-2.61 8 -8.22 8 -14 8 C-13.01 6.68 -12.02 5.36 -11 4 C-10.34 4 -9.68 4 -9 4 C-9 3.01 -9 2.02 -9 1 C-5.93570224 -0.53214888 -3.3834358 -0.22938548 0 0 Z " fill="#E9E6DA" transform="translate(272,169)"/>
<path d="M0 0 C0.33 0 0.66 0 1 0 C1 4.62 1 9.24 1 14 C-4 15 -4 15 -5.86328125 13.88671875 C-7.4686155 11.22219489 -6.92108653 9.78545595 -6.1875 6.8125 C-5.97480469 5.91144531 -5.76210938 5.01039063 -5.54296875 4.08203125 C-5.36378906 3.39496094 -5.18460937 2.70789063 -5 2 C-4.360625 1.855625 -3.72125 1.71125 -3.0625 1.5625 C-1.02454854 1.18992819 -1.02454854 1.18992819 0 0 Z " fill="#ECE6DA" transform="translate(427,192)"/>
<path d="M0 0 C0.33 0 0.66 0 1 0 C0.82905775 6.71336821 -0.46316495 11.88705891 -5 17 C-8.3125 19 -8.3125 19 -11 20 C-11.99 19.34 -12.98 18.68 -14 18 C-14 14 -14 14 -11.5625 11.4375 C-10.716875 10.633125 -9.87125 9.82875 -9 9 C-8.67 8.01 -8.34 7.02 -8 6 C-7.34 6.33 -6.68 6.66 -6 7 C-6.33 9.31 -6.66 11.62 -7 14 C-3.55783328 11.3401439 -3.00495326 8.09711714 -2 4 C-1.34 4 -0.68 4 0 4 C0 2.68 0 1.36 0 0 Z " fill="#E0DCD1" transform="translate(285,186)"/>
<path d="M0 0 C1.45922693 0.11409593 2.91740598 0.24165544 4.375 0.375 C5.59316406 0.47941406 5.59316406 0.47941406 6.8359375 0.5859375 C9 1 9 1 11 3 C10.67 3.33 10.34 3.66 10 4 C10.66 4.66 11.32 5.32 12 6 C10.285532 7.714468 8.08657934 7.21251477 5.75 7.25 C1.38425939 7.215937 -1.61652237 7.0334627 -5 4 C-5 3.34 -5 2.68 -5 2 C-3.35 2 -1.7 2 0 2 C0 1.34 0 0.68 0 0 Z " fill="#DDDAD3" transform="translate(262,200)"/>
<path d="M0 0 C0.33 1.65 0.66 3.3 1 5 C-0.65 5 -2.3 5 -4 5 C-3.67 5.99 -3.34 6.98 -3 8 C-5.31 8.33 -7.62 8.66 -10 9 C-10.268125 7.865625 -10.53625 6.73125 -10.8125 5.5625 C-11.204375 4.386875 -11.59625 3.21125 -12 2 C-12.99 1.67 -13.98 1.34 -15 1 C-9.92928099 0.28832014 -5.11791642 -0.10662326 0 0 Z " fill="#D3D1C8" transform="translate(226,204)"/>
<path d="M0 0 C0.66 0.33 1.32 0.66 2 1 C2 4.96 2 8.92 2 13 C1.01 13 0.02 13 -1 13 C-1.4125 12.05125 -1.825 11.1025 -2.25 10.125 C-4.0040131 6.99283376 -4.70851757 6.13499394 -8 5 C-8 4.34 -8 3.68 -8 3 C-6.02 2.34 -4.04 1.68 -2 1 C-1.67 1.33 -1.34 1.66 -1 2 C-0.67 1.34 -0.34 0.68 0 0 Z " fill="#CCCAC2" transform="translate(322,172)"/>
<path d="M0 0 C1.67542976 0.28604898 3.34385343 0.61781233 5 1 C5.66 3.31 6.32 5.62 7 8 C5.68 8 4.36 8 3 8 C2.67 8.66 2.34 9.32 2 10 C2.66 10 3.32 10 4 10 C3.67 11.65 3.34 13.3 3 15 C-0.34802922 9.97795617 -1.35071172 7.19590705 -1 1 C-0.67 0.67 -0.34 0.34 0 0 Z " fill="#CAC9C2" transform="translate(442,169)"/>
<path d="M0 0 C0.12375 0.639375 0.2475 1.27875 0.375 1.9375 C0.684375 2.9584375 0.684375 2.9584375 1 4 C1.66 4.33 2.32 4.66 3 5 C2.28119593 7.99962469 1.41730016 10.9304665 0.5 13.875 C-0.61991957 17.56800308 -1.49534352 21.16461073 -2 25 C-2.66 24.67 -3.32 24.34 -4 24 C-2.73333333 2.73333333 -2.73333333 2.73333333 0 0 Z " fill="#D9DAD1" transform="translate(451,209)"/>
<path d="M0 0 C1.0625 1.875 1.0625 1.875 2 4 C1.67 4.66 1.34 5.32 1 6 C1.99 6.66 2.98 7.32 4 8 C4.66 7.34 5.32 6.68 6 6 C5.67 9.63 5.34 13.26 5 17 C3.35 16.67 1.7 16.34 0 16 C0.33 15.34 0.66 14.68 1 14 C0.36729133 12.65022151 -0.30062468 11.31647119 -1 10 C-1 6.63812756 -0.4298653 3.33145609 0 0 Z " fill="#ECEADF" transform="translate(422,168)"/>
<path d="M0 0 C0.33 0 0.66 0 1 0 C1.08112454 2.58396679 1.14054748 5.16537568 1.1875 7.75 C1.22520508 8.84441406 1.22520508 8.84441406 1.26367188 9.9609375 C1.308764 13.2676931 1.22638385 15.58932057 -0.38671875 18.515625 C-2 20 -2 20 -4 20 C-4.12375 19.360625 -4.2475 18.72125 -4.375 18.0625 C-4.58125 17.381875 -4.7875 16.70125 -5 16 C-5.66 15.67 -6.32 15.34 -7 15 C-6.34 14.67 -5.68 14.34 -5 14 C-5 12.02 -5 10.04 -5 8 C-4.54625 8.66 -4.0925 9.32 -3.625 10 C-3.08875 10.66 -2.5525 11.32 -2 12 C-1.34 12 -0.68 12 0 12 C0 8.04 0 4.08 0 0 Z " fill="#C5C5BE" transform="translate(410,188)"/>
<path d="M0 0 C-1.485 1.485 -1.485 1.485 -3 3 C-1.88625 3.2475 -0.7725 3.495 0.375 3.75 C4 5 4 5 5.375 6.875 C5.97340475 8.90957616 6.55555925 10.92594319 7 13 C2.25 11.125 2.25 11.125 0 10 C0.33 8.68 0.66 7.36 1 6 C-0.3921875 5.5359375 -0.3921875 5.5359375 -1.8125 5.0625 C-3.875 4.375 -5.9375 3.6875 -8 3 C-8 2.34 -8 1.68 -8 1 C-2.25 -1.125 -2.25 -1.125 0 0 Z " fill="#E2E0D6" transform="translate(229,173)"/>
<path d="M0 0 C0.66 0.33 1.32 0.66 2 1 C2.680625 1.226875 3.36125 1.45375 4.0625 1.6875 C6 3 6 3 6.75 6.125 C6.87375 7.548125 6.87375 7.548125 7 9 C6.34 9 5.68 9 5 9 C4.67 9.66 4.34 10.32 4 11 C4 10.34 4 9.68 4 9 C2.68 9.33 1.36 9.66 0 10 C-1 8 -1 8 -2 5 C-1.0625 2.3125 -1.0625 2.3125 0 0 Z " fill="#EEE7D8" transform="translate(453,206)"/>
<path d="M0 0 C2.69082872 0.17635452 5.32851446 0.61835921 8 1 C7 4 7 4 4 6 C5.32 6.99 6.64 7.98 8 9 C1.25 9.125 1.25 9.125 -1 8 C-1.04241723 5.66705225 -1.04092937 3.33297433 -1 1 C-0.67 0.67 -0.34 0.34 0 0 Z " fill="#CAC8BF" transform="translate(305,200)"/>
<path d="M0 0 C0.33 1.32 0.66 2.64 1 4 C0.34 4 -0.32 4 -1 4 C-1.10957031 4.62648437 -1.21914063 5.25296875 -1.33203125 5.8984375 C-1.49058594 6.71570313 -1.64914062 7.53296875 -1.8125 8.375 C-1.96332031 9.18710938 -2.11414063 9.99921875 -2.26953125 10.8359375 C-3 13 -3 13 -6 15 C-7.08209949 11.75370153 -6.78140875 11.12563502 -6 8 C-6.33 7.01 -6.66 6.02 -7 5 C-6.01 5 -5.02 5 -4 5 C-3.67 4.01 -3.34 3.02 -3 2 C-2.01 1.34 -1.02 0.68 0 0 Z " fill="#E6E4D8" transform="translate(284,186)"/>
<path d="M0 0 C2.31 0.66 4.62 1.32 7 2 C7 2.66 7 3.32 7 4 C3.02806853 7.12940055 -0.04230204 7.29162929 -5 7 C-4.6875 5.0625 -4.6875 5.0625 -4 3 C-3.01 2.67 -2.02 2.34 -1 2 C-0.67 1.34 -0.34 0.68 0 0 Z " fill="#E5E2D7" transform="translate(313,201)"/>
<path d="M0 0 C2.0625 0.4375 2.0625 0.4375 4 1 C4 1.99 4 2.98 4 4 C3.01 4.33 2.02 4.66 1 5 C-0.14228658 7.75763432 -0.14228658 7.75763432 -1 11 C-1.9375 14.3125 -1.9375 14.3125 -3 17 C-3.99 17.33 -4.98 17.66 -6 18 C-5.67 15.69 -5.34 13.38 -5 11 C-4.34 11 -3.68 11 -3 11 C-2.86722656 10.28972656 -2.73445313 9.57945312 -2.59765625 8.84765625 C-2.42105469 7.92855469 -2.24445313 7.00945312 -2.0625 6.0625 C-1.88847656 5.14597656 -1.71445312 4.22945312 -1.53515625 3.28515625 C-1 1 -1 1 0 0 Z " fill="#E1E3DC" transform="translate(471,166)"/>
<path d="M0 0 C1.32 0.33 2.64 0.66 4 1 C3.67 1.99 3.34 2.98 3 4 C5.64 3.34 8.28 2.68 11 2 C11.33 3.32 11.66 4.64 12 6 C6.96266834 7.5111995 2.11828973 6.64599773 -3 6 C-2.505 5.195625 -2.01 4.39125 -1.5 3.5625 C0.08419653 1.35103815 0.08419653 1.35103815 0 0 Z " fill="#DBD9D2" transform="translate(389,201)"/>
<path d="M0 0 C0.33 0 0.66 0 1 0 C1.07347656 0.85271484 1.07347656 0.85271484 1.1484375 1.72265625 C1.63143081 6.71081129 2.47638163 11.22599578 4 16 C3.01 16.33 2.02 16.66 1 17 C1 16.34 1 15.68 1 15 C-0.32 14.34 -1.64 13.68 -3 13 C-3 11.35 -3 9.7 -3 8 C-2.34 7.67 -1.68 7.34 -1 7 C-0.59270772 4.67843403 -0.25561323 2.3431213 0 0 Z " fill="#DCDBD4" transform="translate(301,190)"/>
<path d="M0 0 C0.66 0.33 1.32 0.66 2 1 C1.67 3.31 1.34 5.62 1 8 C0.34 7.01 -0.32 6.02 -1 5 C-1.33 8.96 -1.66 12.92 -2 17 C-5 14 -5 14 -5.29296875 11.51953125 C-5.25816406 10.62621094 -5.22335938 9.73289063 -5.1875 8.8125 C-5.16042969 7.91144531 -5.13335937 7.01039063 -5.10546875 6.08203125 C-5.07066406 5.39496094 -5.03585938 4.70789063 -5 4 C-4.0409375 3.8453125 -4.0409375 3.8453125 -3.0625 3.6875 C-2.381875 3.460625 -1.70125 3.23375 -1 3 C-0.67 2.01 -0.34 1.02 0 0 Z " fill="#C1BDB6" transform="translate(205,181)"/>
<path d="M0 0 C0.66 0.33 1.32 0.66 2 1 C2 1.66 2 2.32 2 3 C2.66 3 3.32 3 4 3 C4.66 2.34 5.32 1.68 6 1 C6.309375 1.78375 6.61875 2.5675 6.9375 3.375 C7.92875038 5.92330128 7.92875038 5.92330128 9 8 C7.35 7.67 5.7 7.34 4 7 C3.67 8.32 3.34 9.64 3 11 C0.9375 9.4375 0.9375 9.4375 -1 7 C-0.75 3.25 -0.75 3.25 0 0 Z " fill="#D2CEC3" transform="translate(376,191)"/>
<path d="M0 0 C0 3.3 0 6.6 0 10 C-1.65 10.33 -3.3 10.66 -5 11 C-5 7.7 -5 4.4 -5 1 C-1 0 -1 0 0 0 Z " fill="#EAE7DD" transform="translate(257,185)"/>
<path d="M0 0 C3.16115776 1.36983503 3.9927092 1.9890638 6 5 C6.125 8.1875 6.125 8.1875 6 11 C5.01 11.33 4.02 11.66 3 12 C2.79503906 11.44570312 2.59007812 10.89140625 2.37890625 10.3203125 C2.10949219 9.59585938 1.84007812 8.87140625 1.5625 8.125 C1.29566406 7.40570313 1.02882813 6.68640625 0.75390625 5.9453125 C0.02083146 3.96351155 0.02083146 3.96351155 -1 2 C-0.67 1.34 -0.34 0.68 0 0 Z " fill="#B9B9B0" transform="translate(279,175)"/>
<path d="M0 0 C2.0625 1.6875 2.0625 1.6875 4 4 C3.75 6.75 3.75 6.75 3 9 C1 9 -1 9 -3 9 C-3.75 7.3125 -3.75 7.3125 -4 5 C-2.0625 2.25 -2.0625 2.25 0 0 Z " fill="#E6E3D9" transform="translate(451,184)"/>
<path d="M0 0 C0.99 0 1.98 0 3 0 C3.125 6.75 3.125 6.75 2 9 C-0.5625 9.625 -0.5625 9.625 -3 10 C-2.49287967 6.28111761 -1.88391785 3.26545761 0 0 Z " fill="#DADBCE" transform="translate(453,223)"/>
<path d="M0 0 C0.99 0.495 0.99 0.495 2 1 C1.67 1.66 1.34 2.32 1 3 C1.9590625 3.3403125 1.9590625 3.3403125 2.9375 3.6875 C5 5 5 5 5.75 7.625 C5.8325 8.40875 5.915 9.1925 6 10 C5.34 10 4.68 10 4 10 C3.67 10.66 3.34 11.32 3 12 C1.09598862 10.09598862 0.06479561 8.66574314 -0.19921875 5.953125 C-0.1886578 3.96766727 -0.09915043 1.9830086 0 0 Z " fill="#EEE9DC" transform="translate(322,186)"/>
<path d="M0 0 C0 1.65 0 3.3 0 5 C-0.66 5 -1.32 5 -2 5 C-2 5.66 -2 6.32 -2 7 C-1.34 7 -0.68 7 0 7 C-0.375 8.9375 -0.375 8.9375 -1 11 C-1.99 11.495 -1.99 11.495 -3 12 C-4.80230168 8.17010894 -5.19622241 5.21878192 -5 1 C-2 0 -2 0 0 0 Z " fill="#CBCCC3" transform="translate(424,149)"/>
<path d="M0 0 C0 0.99 0 1.98 0 3 C-2.1171875 5.04296875 -2.1171875 5.04296875 -4.875 7.1875 C-5.77992188 7.90292969 -6.68484375 8.61835938 -7.6171875 9.35546875 C-10 11 -10 11 -12 11 C-11.64037102 8.14820529 -11.11014144 7.10604616 -9.00390625 5.078125 C-8.19824219 4.47484375 -7.39257812 3.8715625 -6.5625 3.25 C-5.75941406 2.63640625 -4.95632813 2.0228125 -4.12890625 1.390625 C-2 0 -2 0 0 0 Z " fill="#C8CAC5" transform="translate(263,170)"/>
<path d="M0 0 C0.66 0.99 1.32 1.98 2 3 C1.01 4.98 0.02 6.96 -1 9 C-2.98 8.34 -4.96 7.68 -7 7 C-6.67 5.02 -6.34 3.04 -6 1 C-5.34 2.32 -4.68 3.64 -4 5 C-3.01 4.67 -2.02 4.34 -1 4 C-0.26676204 1.98491642 -0.26676204 1.98491642 0 0 Z " fill="#DBD8CF" transform="translate(303,180)"/>
<path d="M0 0 C1.79133978 -0.05391993 3.58313899 -0.09275571 5.375 -0.125 C6.37273437 -0.14820313 7.37046875 -0.17140625 8.3984375 -0.1953125 C11 0 11 0 13 2 C9.25 5 9.25 5 7 5 C6.67 4.34 6.34 3.68 6 3 C4.02111039 2.27306096 2.02045442 1.60183749 0 1 C0 0.67 0 0.34 0 0 Z " fill="#DDDCD1" transform="translate(387,170)"/>
<path d="M0 0 C0.33 0 0.66 0 1 0 C0.82316211 6.94490614 -0.88155424 11.42262143 -5 17 C-5.66 16.34 -6.32 15.68 -7 15 C-6.54625 14.484375 -6.0925 13.96875 -5.625 13.4375 C-3.61799617 10.42699426 -2.87268191 7.49072763 -2 4 C-1.34 4 -0.68 4 0 4 C0 2.68 0 1.36 0 0 Z " fill="#A9ABA5" transform="translate(285,186)"/>
<path d="M0 0 C0.598125 0.20625 1.19625 0.4125 1.8125 0.625 C1.4825 1.615 1.1525 2.605 0.8125 3.625 C-0.5075 3.625 -1.8275 3.625 -3.1875 3.625 C-3.1875 5.605 -3.1875 7.585 -3.1875 9.625 C-3.8475 9.625 -4.5075 9.625 -5.1875 9.625 C-5.48046875 3.5703125 -5.48046875 3.5703125 -5.1875 1.625 C-2.1875 -0.375 -2.1875 -0.375 0 0 Z " fill="#CBCCC7" transform="translate(403.1875,147.375)"/>
<path d="M0 0 C0.66 0.99 1.32 1.98 2 3 C3.32381517 4.67423683 4.65576661 6.34211215 6 8 C5.34 9.32 4.68 10.64 4 12 C3.34 12 2.68 12 2 12 C2 10.02 2 8.04 2 6 C1.01 5.67 0.02 5.34 -1 5 C-1.33 4.01 -1.66 3.02 -2 2 C-1.34 2 -0.68 2 0 2 C0 1.34 0 0.68 0 0 Z " fill="#BBBCB5" transform="translate(328,194)"/>
<path d="M0 0 C5.41538462 -0.36923077 5.41538462 -0.36923077 8.375 1.5 C8.91125 1.995 9.4475 2.49 10 3 C4.49983036 4.30267176 -0.47032059 3.71033431 -6 3 C-6 2.67 -6 2.34 -6 2 C-4.02 2 -2.04 2 0 2 C0 1.34 0 0.68 0 0 Z " fill="#BDBAB2" transform="translate(213,156)"/>
<path d="M0 0 C1.08861328 0.36931641 1.08861328 0.36931641 2.19921875 0.74609375 C1.61269531 1.01035156 1.02617187 1.27460938 0.421875 1.546875 C-2.53408861 3.14174464 -4.69615033 5.29915076 -7.1171875 7.6015625 C-7.95056641 8.16810547 -7.95056641 8.16810547 -8.80078125 8.74609375 C-9.79078125 8.41609375 -10.78078125 8.08609375 -11.80078125 7.74609375 C-10.42262419 6.37394173 -9.02248974 5.02383608 -7.61328125 3.68359375 C-6.83597656 2.92949219 -6.05867188 2.17539063 -5.2578125 1.3984375 C-2.80078125 -0.25390625 -2.80078125 -0.25390625 0 0 Z " fill="#141616" transform="translate(262.80078125,168.25390625)"/>
<path d="M0 0 C2.26609984 4.53219967 1.92735976 6.17772925 1 11 C-0.32 11 -1.64 11 -3 11 C-3 11.99 -3 12.98 -3 14 C-2.34 14.33 -1.68 14.66 -1 15 C-1.99 15 -2.98 15 -4 15 C-4.33 13.35 -4.66 11.7 -5 10 C-3.35 9.67 -1.7 9.34 0 9 C0 6.03 0 3.06 0 0 Z " fill="#DBDDDA" transform="translate(201,194)"/>
<path d="M0 0 C1.32 0 2.64 0 4 0 C4 1.98 4 3.96 4 6 C5.32 6.33 6.64 6.66 8 7 C5 8 5 8 2.3125 6.875 C0 5 0 5 -0.3125 2.3125 C-0.209375 1.549375 -0.10625 0.78625 0 0 Z " fill="#E2E0D8" transform="translate(326,200)"/>
<path d="M0 0 C1.58206057 0.00667536 3.16410534 0.0186375 4.74609375 0.03515625 C5.55240234 0.03966797 6.35871094 0.04417969 7.18945312 0.04882812 C9.18753131 0.06065107 11.18557158 0.07858711 13.18359375 0.09765625 C13.18359375 2.40765625 13.18359375 4.71765625 13.18359375 7.09765625 C12.85359375 7.09765625 12.52359375 7.09765625 12.18359375 7.09765625 C12.18359375 5.11765625 12.18359375 3.13765625 12.18359375 1.09765625 C7.56359375 1.09765625 2.94359375 1.09765625 -1.81640625 1.09765625 C-2.14640625 2.08765625 -2.47640625 3.07765625 -2.81640625 4.09765625 C-3.47640625 3.10765625 -4.13640625 2.11765625 -4.81640625 1.09765625 C-3.81640625 0.09765625 -3.81640625 0.09765625 0 0 Z " fill="#B7B7B4" transform="translate(388.81640625,175.90234375)"/>
<path d="M0 0 C2.1875 -0.3125 2.1875 -0.3125 5 0 C7.8125 2.5 7.8125 2.5 10 5 C9.67 5.99 9.34 6.98 9 8 C7.49712782 6.85793642 5.99776716 5.71125043 4.5 4.5625 C3.6646875 3.92441406 2.829375 3.28632813 1.96875 2.62890625 C1.3190625 2.09136719 0.669375 1.55382812 0 1 C0 0.67 0 0.34 0 0 Z " fill="#C2C0BB" transform="translate(228,183)"/>
<path d="M0 0 C1.13643966 3.40931897 0.86747764 4.00335456 -0.4375 7.1875 C-0.72496094 7.90292969 -1.01242187 8.61835938 -1.30859375 9.35546875 C-1.53675781 9.89816406 -1.76492188 10.44085938 -2 11 C-4.1519437 7.77208445 -4.20086443 6.71599191 -4 3 C-2.68 2.67 -1.36 2.34 0 2 C0 1.34 0 0.68 0 0 Z " fill="#CAC9C3" transform="translate(475,168)"/>
<path d="M0 0 C0 0.33 0 0.66 0 1 C-0.59167969 1.02578125 -1.18335938 1.0515625 -1.79296875 1.078125 C-7.0720013 1.45704414 -10.10636661 2.10636661 -14 6 C-14.99 5.34 -15.98 4.68 -17 4 C-11.59696035 -0.67289916 -6.95230941 -0.44534366 0 0 Z " fill="#9A9D99" transform="translate(397,169)"/>
<path d="M0 0 C1.07310858 3.27185553 0.89263102 5.42947592 0.0625 8.75 C-0.22947266 9.94882813 -0.22947266 9.94882813 -0.52734375 11.171875 C-0.68332031 11.77515625 -0.83929688 12.3784375 -1 13 C-1.66 13 -2.32 13 -3 13 C-2.88557539 11.39504433 -2.75805306 9.79101881 -2.625 8.1875 C-2.55539062 7.29417969 -2.48578125 6.40085938 -2.4140625 5.48046875 C-2 3 -2 3 0 0 Z " fill="#1B2021" transform="translate(449,213)"/>
<path d="M0 0 C0.99 0.66 1.98 1.32 3 2 C2.67 4.64 2.34 7.28 2 10 C1.01 10 0.02 10 -1 10 C-2.46726798 6.18510326 -1.43336419 3.70988378 0 0 Z " fill="#C9C7BF" transform="translate(464,181)"/>
<path d="M0 0 C2.31 0 4.62 0 7 0 C7.33 1.65 7.66 3.3 8 5 C5.03 4.505 5.03 4.505 2 4 C2 3.34 2 2.68 2 2 C1.34 2 0.68 2 0 2 C0 1.34 0 0.68 0 0 Z " fill="#B0B2AA" transform="translate(219,204)"/>
<path d="M0 0 C0.33 0.66 0.66 1.32 1 2 C0.34 2 -0.32 2 -1 2 C-0.34 3.65 0.32 5.3 1 7 C0.01 7.33 -0.98 7.66 -2 8 C-5 4.25 -5 4.25 -5 2 C-3.35 1.34 -1.7 0.68 0 0 Z " fill="#D9D8D0" transform="translate(257,194)"/>
<path d="M0 0 C0.33 0 0.66 0 1 0 C1 1.98 1 3.96 1 6 C2.65 5.34 4.3 4.68 6 4 C5.6875 5.875 5.6875 5.875 5 8 C4.01 8.66 3.02 9.32 2 10 C-0.4294516 6.3558226 -0.16179575 4.28758728 0 0 Z " fill="#D2CFC7" transform="translate(206,171)"/>
<path d="M0 0 C0.99 0.33 1.98 0.66 3 1 C2.01 3.97 1.02 6.94 0 10 C-0.99 9.67 -1.98 9.34 -3 9 C-2.690625 8.443125 -2.38125 7.88625 -2.0625 7.3125 C-0.94238179 4.87459567 -0.43962636 2.63775814 0 0 Z " fill="#C2C4BE" transform="translate(276,192)"/>
<path d="M0 0 C1.98 0.495 1.98 0.495 4 1 C3.45276317 4.37462715 2.9451 6.08235 1 9 C-0.125 5.25 -0.125 5.25 1 3 C0.34 3 -0.32 3 -1 3 C-0.67 2.01 -0.34 1.02 0 0 Z " fill="#EDE7DE" transform="translate(445,176)"/>
<path d="M0 0 C0.66 0 1.32 0 2 0 C3.20272819 2.40545638 3.10071472 3.94996953 3.0625 6.625 C3.05347656 7.44226563 3.04445313 8.25953125 3.03515625 9.1015625 C3.02355469 9.72804687 3.01195312 10.35453125 3 11 C2.34 11 1.68 11 1 11 C0.67 7.37 0.34 3.74 0 0 Z " fill="#E2E0D7" transform="translate(323,173)"/>
<path d="M0 0 C1.65 0.33 3.3 0.66 5 1 C5 2.32 5 3.64 5 5 C2.03 4.505 2.03 4.505 -1 4 C-0.67 2.68 -0.34 1.36 0 0 Z " fill="#E1E3DF" transform="translate(442,169)"/>
<path d="M0 0 C1.65 0.33 3.3 0.66 5 1 C4.34 2.32 3.68 3.64 3 5 C0.0625 4.625 0.0625 4.625 -3 4 C-3.33 3.34 -3.66 2.68 -4 2 C-3.01 2 -2.02 2 -1 2 C-0.67 1.34 -0.34 0.68 0 0 Z " fill="#ECEAE2" transform="translate(386,201)"/>
<path d="M0 0 C2.64 0.33 5.28 0.66 8 1 C7.67 1.99 7.34 2.98 7 4 C4.69 3.67 2.38 3.34 0 3 C0 2.01 0 1.02 0 0 Z " fill="#A9AAA4" transform="translate(305,200)"/>
<path d="M0 0 C-1.485 1.485 -1.485 1.485 -3 3 C-0.03 3.495 -0.03 3.495 3 4 C3 4.33 3 4.66 3 5 C-4.42857143 5.28571429 -4.42857143 5.28571429 -8 3 C-8 2.34 -8 1.68 -8 1 C-2.25 -1.125 -2.25 -1.125 0 0 Z " fill="#C1C0B8" transform="translate(229,173)"/>
<path d="M0 0 C0.66 0.33 1.32 0.66 2 1 C-0.77280706 4.08089673 -3.06326356 5.68775452 -7 7 C-7 6.34 -7 5.68 -7 5 C-7.66 4.67 -8.32 4.34 -9 4 C-8.2575 3.71125 -7.515 3.4225 -6.75 3.125 C-4.05125691 2.07918522 -4.05125691 2.07918522 -1.8125 0.8125 C-1.214375 0.544375 -0.61625 0.27625 0 0 Z " fill="#BBB7B0" transform="translate(228,166)"/>
<path d="M0 0 C0.33 1.32 0.66 2.64 1 4 C-0.65 4.33 -2.3 4.66 -4 5 C-4.33 3.68 -4.66 2.36 -5 1 C-2 0 -2 0 0 0 Z " fill="#B1B0A8" transform="translate(400,203)"/>
<path d="M0 0 C1.65 0 3.3 0 5 0 C5.33 0.99 5.66 1.98 6 3 C5.34 3 4.68 3 4 3 C3.67 3.99 3.34 4.98 3 6 C1.5 4.6875 1.5 4.6875 0 3 C0 2.01 0 1.02 0 0 Z " fill="#D1CBBF" transform="translate(322,197)"/>
<path d="M0 0 C3.3125 -0.1875 3.3125 -0.1875 7 0 C7.99 0.99 8.98 1.98 10 3 C7.03 3 4.06 3 1 3 C0.67 2.01 0.34 1.02 0 0 Z " fill="#C3C5C2" transform="translate(308,170)"/>
<path d="M0 0 C0.66 0 1.32 0 2 0 C2 0.99 2 1.98 2 3 C1.360625 3.268125 0.72125 3.53625 0.0625 3.8125 C-2.33131686 4.88667752 -2.33131686 4.88667752 -3 8 C-3.99 7.67 -4.98 7.34 -6 7 C-5.04882866 5.8274869 -4.08882991 4.66212985 -3.125 3.5 C-2.59132813 2.8503125 -2.05765625 2.200625 -1.5078125 1.53125 C-0.76144531 0.77328125 -0.76144531 0.77328125 0 0 Z " fill="#141515" transform="translate(305,169)"/>
<path d="M0 0 C0.33 0 0.66 0 1 0 C0.67 3.63 0.34 7.26 0 11 C-0.66 10.67 -1.32 10.34 -2 10 C-2.25 3.375 -2.25 3.375 0 0 Z " fill="#DEE0DB" transform="translate(449,223)"/>
<path d="M0 0 C1.65 0 3.3 0 5 0 C5.33 1.65 5.66 3.3 6 5 C5.01 5.33 4.02 5.66 3 6 C3 5.34 3 4.68 3 4 C2.34 4 1.68 4 1 4 C0.67 2.68 0.34 1.36 0 0 Z " fill="#E8E6DE" transform="translate(299,201)"/>
<path d="M0 0 C1.73662334 3.22515763 2.8905928 6.51329166 4 10 C3.01 10 2.02 10 1 10 C-0.80411967 7.24075815 -1.0127245 6.11027897 -0.625 2.75 C-0.41875 1.8425 -0.2125 0.935 0 0 Z " fill="#AEAEA7" transform="translate(376,191)"/>
<path d="M0 0 C2.475 0.99 2.475 0.99 5 2 C4.67 3.65 4.34 5.3 4 7 C3.01 6.67 2.02 6.34 1 6 C0.67 4.02 0.34 2.04 0 0 Z " fill="#DBDAD3" transform="translate(197,178)"/>
<path d="M0 0 C0.99 0 1.98 0 3 0 C3.33 0.66 3.66 1.32 4 2 C3.0625 4.125 3.0625 4.125 2 6 C0.68 5.34 -0.64 4.68 -2 4 C-1.34 2.68 -0.68 1.36 0 0 Z " fill="#D1CDC3" transform="translate(203,207)"/>
<path d="M0 0 C0.66 0 1.32 0 2 0 C1.34 2.97 0.68 5.94 0 9 C-0.99 8.67 -1.98 8.34 -3 8 C-2.01 5.36 -1.02 2.72 0 0 Z " fill="#1F2121" transform="translate(468,168)"/>
<path d="M0 0 C0.33 0 0.66 0 1 0 C1 2.64 1 5.28 1 8 C-0.65 8.33 -2.3 8.66 -4 9 C-3.34 8.67 -2.68 8.34 -2 8 C-1.31527335 6.11235097 -1.31527335 6.11235097 -0.875 3.9375 C-0.70742188 3.20402344 -0.53984375 2.47054687 -0.3671875 1.71484375 C-0.24601562 1.14894531 -0.12484375 0.58304688 0 0 Z " fill="#B8BAB7" transform="translate(427,198)"/>
<path d="M0 0 C0.33 0 0.66 0 1 0 C1.36923077 6.52307692 1.36923077 6.52307692 -0.5 8.9375 C-0.995 9.288125 -1.49 9.63875 -2 10 C-3.39195915 5.82412255 -1.82323219 3.86525224 0 0 Z " fill="#9C9E9B" transform="translate(242,191)"/>
<path d="M0 0 C2 1 2 1 4 4 C3.360625 4.103125 2.72125 4.20625 2.0625 4.3125 C1.381875 4.539375 0.70125 4.76625 0 5 C-0.33 5.99 -0.66 6.98 -1 8 C-2.2077558 4.37673261 -1.54311128 3.35853631 0 0 Z " fill="#EFECE4" transform="translate(453,206)"/>
<path d="M0 0 C0.66 0.33 1.32 0.66 2 1 C1.67 2.32 1.34 3.64 1 5 C0.01 5 -0.98 5 -2 5 C-2.33 3.68 -2.66 2.36 -3 1 C-2.01 0.67 -1.02 0.34 0 0 Z " fill="#F0E9DD" transform="translate(450,188)"/>
<path d="M0 0 C0 0.66 0 1.32 0 2 C-2.3431213 1.74438677 -4.67843403 1.40729228 -7 1 C-7.33 0.34 -7.66 -0.32 -8 -1 C-4.59745511 -2.2151946 -3.06748874 -1.86240388 0 0 Z " fill="#AFB2B0" transform="translate(369,172)"/>
<path d="M0 0 C0.66 0 1.32 0 2 0 C2 1.98 2 3.96 2 6 C1.01 6.33 0.02 6.66 -1 7 C-0.67 4.69 -0.34 2.38 0 0 Z " fill="#D8D8D5" transform="translate(466,177)"/>
<path d="M0 0 C1.32 0.33 2.64 0.66 4 1 C4 3.64 4 6.28 4 9 C1.49701566 6.06171403 0.53069061 3.82097239 0 0 Z " fill="#D5D1C9" transform="translate(425,171)"/>
<path d="M0 0 C0 0.99 0 1.98 0 3 C-3 5 -3 5 -5.1875 4.625 C-5.785625 4.41875 -6.38375 4.2125 -7 4 C-2.25 0 -2.25 0 0 0 Z " fill="#B2B5B2" transform="translate(263,170)"/>
<path d="" fill="#000000" transform="translate(0,0)"/>
<path d="" fill="#000000" transform="translate(0,0)"/>
<path d="" fill="#000000" transform="translate(0,0)"/>
<path d="" fill="#000000" transform="translate(0,0)"/>
<path d="" fill="#000000" transform="translate(0,0)"/>
<path d="" fill="#000000" transform="translate(0,0)"/>
<path d="" fill="#000000" transform="translate(0,0)"/>
<path d="" fill="#000000" transform="translate(0,0)"/>
<path d="" fill="#000000" transform="translate(0,0)"/>
<path d="" fill="#000000" transform="translate(0,0)"/>
<path d="" fill="#000000" transform="translate(0,0)"/>
<path d="" fill="#000000" transform="translate(0,0)"/>
<path d="" fill="#000000" transform="translate(0,0)"/>
<path d="" fill="#000000" transform="translate(0,0)"/>
<path d="" fill="#000000" transform="translate(0,0)"/>
<path d="" fill="#000000" transform="translate(0,0)"/>
<path d="" fill="#000000" transform="translate(0,0)"/>
<path d="" fill="#000000" transform="translate(0,0)"/>
<path d="" fill="#000000" transform="translate(0,0)"/>
<path d="" fill="#000000" transform="translate(0,0)"/>
<path d="" fill="#000000" transform="translate(0,0)"/>
<path d="" fill="#000000" transform="translate(0,0)"/>
<path d="" fill="#000000" transform="translate(0,0)"/>
<path d="" fill="#000000" transform="translate(0,0)"/>
<path d="" fill="#000000" transform="translate(0,0)"/>
<path d="" fill="#000000" transform="translate(0,0)"/>
<path d="" fill="#000000" transform="translate(0,0)"/>
<path d="" fill="#000000" transform="translate(0,0)"/>
<path d="" fill="#000000" transform="translate(0,0)"/>
<path d="" fill="#000000" transform="translate(0,0)"/>
<path d="" fill="#000000" transform="translate(0,0)"/>
<path d="" fill="#000000" transform="translate(0,0)"/>
<path d="" fill="#000000" transform="translate(0,0)"/>
<path d="" fill="#000000" transform="translate(0,0)"/>
<path d="" fill="#000000" transform="translate(0,0)"/>
<path d="" fill="#000000" transform="translate(0,0)"/>
<path d="" fill="#000000" transform="translate(0,0)"/>
<path d="" fill="#000000" transform="translate(0,0)"/>
<path d="" fill="#000000" transform="translate(0,0)"/>
<path d="" fill="#000000" transform="translate(0,0)"/>
<path d="" fill="#000000" transform="translate(0,0)"/>
<path d="" fill="#000000" transform="translate(0,0)"/>
<path d="" fill="#000000" transform="translate(0,0)"/>
<path d="" fill="#000000" transform="translate(0,0)"/>
<path d="" fill="#000000" transform="translate(0,0)"/>
<path d="" fill="#000000" transform="translate(0,0)"/>
<path d="" fill="#000000" transform="translate(0,0)"/>
<path d="" fill="#000000" transform="translate(0,0)"/>
<path d="" fill="#000000" transform="translate(0,0)"/>
<path d="" fill="#000000" transform="translate(0,0)"/>
<path d="" fill="#000000" transform="translate(0,0)"/>
<path d="" fill="#000000" transform="translate(0,0)"/>
<path d="" fill="#000000" transform="translate(0,0)"/>
<path d="" fill="#000000" transform="translate(0,0)"/>
<path d="" fill="#000000" transform="translate(0,0)"/>
<path d="" fill="#000000" transform="translate(0,0)"/>
<path d="" fill="#000000" transform="translate(0,0)"/>
<path d="" fill="#000000" transform="translate(0,0)"/>
<path d="" fill="#000000" transform="translate(0,0)"/>
<path d="" fill="#000000" transform="translate(0,0)"/>
<path d="" fill="#000000" transform="translate(0,0)"/>
<path d="" fill="#000000" transform="translate(0,0)"/>
<path d="" fill="#000000" transform="translate(0,0)"/>
<path d="" fill="#000000" transform="translate(0,0)"/>
<path d="" fill="#000000" transform="translate(0,0)"/>
<path d="" fill="#000000" transform="translate(0,0)"/>
<path d="" fill="#000000" transform="translate(0,0)"/>
<path d="" fill="#000000" transform="translate(0,0)"/>
<path d="" fill="#000000" transform="translate(0,0)"/>
<path d="" fill="#000000" transform="translate(0,0)"/>
<path d="" fill="#000000" transform="translate(0,0)"/>
<path d="" fill="#000000" transform="translate(0,0)"/>
<path d="" fill="#000000" transform="translate(0,0)"/>
<path d="" fill="#000000" transform="translate(0,0)"/>
<path d="" fill="#000000" transform="translate(0,0)"/>
<path d="" fill="#000000" transform="translate(0,0)"/>
<path d="" fill="#000000" transform="translate(0,0)"/>
<path d="" fill="#000000" transform="translate(0,0)"/>
<path d="" fill="#000000" transform="translate(0,0)"/>
<path d="" fill="#000000" transform="translate(0,0)"/>
<path d="" fill="#000000" transform="translate(0,0)"/>
<path d="" fill="#000000" transform="translate(0,0)"/>
<path d="" fill="#000000" transform="translate(0,0)"/>
<path d="" fill="#000000" transform="translate(0,0)"/>
<path d="" fill="#000000" transform="translate(0,0)"/>
<path d="" fill="#000000" transform="translate(0,0)"/>
<path d="" fill="#000000" transform="translate(0,0)"/>
<path d="" fill="#000000" transform="translate(0,0)"/>
<path d="" fill="#000000" transform="translate(0,0)"/>
<path d="" fill="#000000" transform="translate(0,0)"/>
<path d="" fill="#000000" transform="translate(0,0)"/>
<path d="" fill="#000000" transform="translate(0,0)"/>
<path d="" fill="#000000" transform="translate(0,0)"/>
<path d="" fill="#000000" transform="translate(0,0)"/>
<path d="" fill="#000000" transform="translate(0,0)"/>
<path d="" fill="#000000" transform="translate(0,0)"/>
<path d="" fill="#000000" transform="translate(0,0)"/>
<path d="" fill="#000000" transform="translate(0,0)"/>
<path d="" fill="#000000" transform="translate(0,0)"/>
<path d="" fill="#000000" transform="translate(0,0)"/>
<path d="" fill="#000000" transform="translate(0,0)"/>
<path d="" fill="#000000" transform="translate(0,0)"/>
<path d="" fill="#000000" transform="translate(0,0)"/>
<path d="" fill="#000000" transform="translate(0,0)"/>
<path d="" fill="#000000" transform="translate(0,0)"/>
<path d="" fill="#000000" transform="translate(0,0)"/>
<path d="" fill="#000000" transform="translate(0,0)"/>
<path d="" fill="#000000" transform="translate(0,0)"/>
<path d="" fill="#000000" transform="translate(0,0)"/>
<path d="" fill="#000000" transform="translate(0,0)"/>
<path d="" fill="#000000" transform="translate(0,0)"/>
<path d="" fill="#000000" transform="translate(0,0)"/>
<path d="" fill="#000000" transform="translate(0,0)"/>
<path d="" fill="#000000" transform="translate(0,0)"/>
<path d="" fill="#000000" transform="translate(0,0)"/>
<path d="" fill="#000000" transform="translate(0,0)"/>
<path d="" fill="#000000" transform="translate(0,0)"/>
<path d="" fill="#000000" transform="translate(0,0)"/>
<path d="" fill="#000000" transform="translate(0,0)"/>
<path d="" fill="#000000" transform="translate(0,0)"/>
<path d="" fill="#000000" transform="translate(0,0)"/>
<path d="" fill="#000000" transform="translate(0,0)"/>
<path d="" fill="#000000" transform="translate(0,0)"/>
<path d="" fill="#000000" transform="translate(0,0)"/>
<path d="" fill="#000000" transform="translate(0,0)"/>
<path d="" fill="#000000" transform="translate(0,0)"/>
<path d="" fill="#000000" transform="translate(0,0)"/>
<path d="" fill="#000000" transform="translate(0,0)"/>
<path d="" fill="#000000" transform="translate(0,0)"/>
<path d="" fill="#000000" transform="translate(0,0)"/>
<path d="" fill="#000000" transform="translate(0,0)"/>
<path d="" fill="#000000" transform="translate(0,0)"/>
<path d="" fill="#000000" transform="translate(0,0)"/>
<path d="" fill="#000000" transform="translate(0,0)"/>
<path d="" fill="#000000" transform="translate(0,0)"/>
<path d="" fill="#000000" transform="translate(0,0)"/>
<path d="" fill="#000000" transform="translate(0,0)"/>
<path d="" fill="#000000" transform="translate(0,0)"/>
<path d="" fill="#000000" transform="translate(0,0)"/>
<path d="" fill="#000000" transform="translate(0,0)"/>
<path d="" fill="#000000" transform="translate(0,0)"/>
<path d="" fill="#000000" transform="translate(0,0)"/>
<path d="" fill="#000000" transform="translate(0,0)"/>
<path d="" fill="#000000" transform="translate(0,0)"/>
<path d="" fill="#000000" transform="translate(0,0)"/>
<path d="" fill="#000000" transform="translate(0,0)"/>
<path d="" fill="#000000" transform="translate(0,0)"/>
<path d="" fill="#000000" transform="translate(0,0)"/>
<path d="" fill="#000000" transform="translate(0,0)"/>
<path d="" fill="#000000" transform="translate(0,0)"/>
<path d="" fill="#000000" transform="translate(0,0)"/>
<path d="" fill="#000000" transform="translate(0,0)"/>
<path d="" fill="#000000" transform="translate(0,0)"/>
<path d="" fill="#000000" transform="translate(0,0)"/>
<path d="" fill="#000000" transform="translate(0,0)"/>
<path d="" fill="#000000" transform="translate(0,0)"/>
<path d="" fill="#000000" transform="translate(0,0)"/>
<path d="" fill="#000000" transform="translate(0,0)"/>
<path d="" fill="#000000" transform="translate(0,0)"/>
<path d="" fill="#000000" transform="translate(0,0)"/>
<path d="" fill="#000000" transform="translate(0,0)"/>
<path d="" fill="#000000" transform="translate(0,0)"/>
<path d="" fill="#000000" transform="translate(0,0)"/>
<path d="" fill="#000000" transform="translate(0,0)"/>
<path d="" fill="#000000" transform="translate(0,0)"/>
<path d="" fill="#000000" transform="translate(0,0)"/>
<path d="" fill="#000000" transform="translate(0,0)"/>
<path d="" fill="#000000" transform="translate(0,0)"/>
<path d="" fill="#000000" transform="translate(0,0)"/>
<path d="" fill="#000000" transform="translate(0,0)"/>
<path d="" fill="#000000" transform="translate(0,0)"/>
<path d="" fill="#000000" transform="translate(0,0)"/>
<path d="" fill="#000000" transform="translate(0,0)"/>
<path d="" fill="#000000" transform="translate(0,0)"/>
<path d="" fill="#000000" transform="translate(0,0)"/>
<path d="" fill="#000000" transform="translate(0,0)"/>
<path d="" fill="#000000" transform="translate(0,0)"/>
<path d="" fill="#000000" transform="translate(0,0)"/>
<path d="" fill="#000000" transform="translate(0,0)"/>
<path d="" fill="#000000" transform="translate(0,0)"/>
<path d="" fill="#000000" transform="translate(0,0)"/>
<path d="" fill="#000000" transform="translate(0,0)"/>
<path d="" fill="#000000" transform="translate(0,0)"/>
<path d="" fill="#000000" transform="translate(0,0)"/>
</svg>
